<svg version="1" xmlns="http://www.w3.org/2000/svg" width="346.667" height="346.667" viewBox="0 0 260.000000 260.000000"><path d="M162 26.4c-3.2 1.1-42.6 22.9-51.3 28.3-7.6 4.8-7.7 5-7.7 38.8 0 26.6.2 30.4 1.8 33.5 1.8 3.7 4.5 5.4 41.2 25.8 11.9 6.7 17.4 9.2 19.9 9.2 2.6 0 9.2-3.2 26.1-12.6 31.3-17.6 32.6-18.4 34.4-21.5 1.4-2.3 1.6-7 1.6-34.7 0-30.3-.1-32.1-2-34.4-2.1-2.7-53.7-32.1-58-33.1-1.4-.3-4.1 0-6 .7z"/><path d="M75.5 52.1C68.8 55.7 16.8 85 11.3 88.2 1.7 94 2 92.5 2 140.1c0 39.3.1 41.6 2 44.6 2.4 4.1 3.4 4.7 39.5 24.9 35.6 19.9 37.6 20.8 42.3 20 1.9-.3 12.5-5.6 23.6-11.7 57.3-32 55.6-30.7 56.4-40.5.4-5.2.4-5.3-2.4-5.9-1.6-.4-3.8-.9-4.9-1.2-4-1.1-55.1-30.4-58.3-33.4-6.2-5.9-6.4-7.2-6.6-40.9-.2-28.3.1-33.8 1.9-39.7.6-1.8 0-2.5-3.4-4.2-5.2-2.7-11.5-2.7-16.6 0zM201.2 154.4c-9 5-16.7 9.9-17.3 10.7-.5.7-.9 10-.9 20.5 0 16.8.2 19.4 1.8 21.2 2.8 3.4 32 19.2 35.3 19.2 2.8 0 31.1-15.1 35.2-18.7 1.5-1.4 1.7-3.8 1.7-21.3 0-14.1-.3-20.1-1.2-21.3-2-2.5-33.3-19.7-35.9-19.6-1.3 0-9.7 4.2-18.7 9.3z"/></svg>