<?xml version="1.0" encoding="UTF-8"?>
<svg width="13px" height="15px" viewBox="0 0 13 15" version="1.1" xmlns="http://www.w3.org/2000/svg" xmlns:xlink="http://www.w3.org/1999/xlink">
    <!-- Generator: sketchtool 46.2 (44496) - http://www.bohemiancoding.com/sketch -->
    <title>6B974A5E-51FF-4676-9C64-FF7BDD6AA089</title>
    <desc>Created with sketchtool.</desc>
    <defs></defs>
    <g id="ЛК-Panel" stroke="none" stroke-width="1" fill="none" fill-rule="evenodd">
        <g id="UI-Kit" transform="translate(-333.000000, -2110.000000)" fill-rule="nonzero" fill="#29ABE2">
            <g id="arrows" transform="translate(333.000000, 2110.000000)">
                <path d="M7,0 C6.69361016,0 6.44849829,0.238082968 6.44849829,0.531821695 L6.44849829,10.1880959 L3.94577706,7.78871425 C3.72969159,7.58155115 3.37814957,7.58155115 3.1620641,7.78871425 C2.94597863,7.99587735 2.94597863,8.33290389 3.1620641,8.54006699 L6.6097561,11.8454007 C6.7129611,11.9443442 6.85486797,12 7,12 C7.14835719,12 7.2870389,11.9443442 7.3902439,11.8454007 L10.8379359,8.53697501 C11.0540214,8.3298119 11.0540214,7.99278536 10.8379359,7.78562226 C10.6218504,7.57845916 10.2703084,7.57845916 10.0542229,7.78562226 L7.55150171,10.1850039 L7.55150171,0.531821695 C7.55472687,0.238082968 7.30638984,0 7,0 Z" id="Shape"></path>
                <path d="M13,14.5014436 C13,14.2244835 12.76274,14 12.4700166,14 L0.529983408,14 C0.237260014,14 0,14.2244835 0,14.5014436 C0,14.7784038 0.237260014,14.9999719 0.529983408,14.9999719 L12.4730979,14.9999719 C12.7658521,15.0028873 13,14.7784038 13,14.5014436 Z" id="Shape"></path>
            </g>
        </g>
    </g>
</svg>