<svg id="Слой_1" data-name="Слой 1" xmlns="http://www.w3.org/2000/svg" viewBox="0 0 190.69 32.34">
  <defs>
    <style>
      .cls-1, .cls-2, .cls-3 {
        fill: #fff;
      }

      .cls-1 {
        opacity: 0.52;
      }

      .cls-2 {
        opacity: 0.25;
      }

      .cls-4 {
        fill: #4d4d4d;
      }
    </style>
  </defs>
  <title>logo_containerum_beta</title>
  <g>
    <g>
      <g>
        <path class="cls-1" d="M4002.58,80.42V71.35a1.94,1.94,0,0,0-.87-1.51l-7.85-4.53a1.94,1.94,0,0,0-1.74,0l-7.85,4.53a1.94,1.94,0,0,0-.87,1.51v9.07a1.94,1.94,0,0,0,.87,1.51l7.85,4.53a1.94,1.94,0,0,0,1.75,0l7.85-4.53A1.93,1.93,0,0,0,4002.58,80.42Z" transform="translate(-3967.63 -65.1)"/>
        <path class="cls-2" d="M4006.31,86.89l-4.66-2.69a1.15,1.15,0,0,0-1,0L3996,86.89a1.15,1.15,0,0,0-.52.9v5.38a1.15,1.15,0,0,0,.52.9l4.66,2.69a1.15,1.15,0,0,0,1,0l4.66-2.69a1.15,1.15,0,0,0,.52-0.9V87.79A1.15,1.15,0,0,0,4006.31,86.89Z" transform="translate(-3967.63 -65.1)"/>
        <path class="cls-3" d="M3991.27,87.92l-7.86-4.54a3.63,3.63,0,0,1-1.71-3V71.35a3.45,3.45,0,0,1,.47-1.68l-0.73-.42a2.55,2.55,0,0,0-2.3,0l-10.36,6a2.55,2.55,0,0,0-1.15,2v12a2.55,2.55,0,0,0,1.15,2l10.36,6a2.55,2.55,0,0,0,2.3,0l10.36-6a2.55,2.55,0,0,0,1.15-2V88.35A3.43,3.43,0,0,1,3991.27,87.92Z" transform="translate(-3967.63 -65.1)"/>
      </g>
      <g>
        <path class="cls-3" d="M4009.86,81.12c0-5.82,3-9.93,7.6-9.93,3.53,0,5.19,2.39,6.14,4.64l-3,1.38c-0.54-1.53-1.58-2.59-3.1-2.59-2.39,0-3.88,2.74-3.88,6.51s1.49,6.51,3.88,6.51c1.58,0,2.63-1.21,3.12-2.79l3,1.38c-0.9,2.3-2.55,4.84-6.14,4.84C4012.82,91.05,4009.86,86.94,4009.86,81.12Z" transform="translate(-3967.63 -65.1)"/>
        <path class="cls-3" d="M4024.93,83.74c0-3.89,2.06-7.29,5.92-7.29s5.95,3.4,5.95,7.29-2,7.31-5.95,7.31S4024.93,87.66,4024.93,83.74Zm8.5,0c0-2.27-.79-4.23-2.58-4.23s-2.55,2-2.55,4.23,0.82,4.26,2.55,4.26S4033.43,86,4033.43,83.74Z" transform="translate(-3967.63 -65.1)"/>
        <path class="cls-3" d="M4046.44,81.55c0-1.47-.62-2-1.71-2a3,3,0,0,0-2.39,1.73v9.47h-3.26V76.8h3.26v1.81a4.84,4.84,0,0,1,3.86-2.16c2.42,0,3.5,1.5,3.5,3.8V90.71h-3.26V81.55Z" transform="translate(-3967.63 -65.1)"/>
        <path class="cls-3" d="M4053.2,87.37V79.82h-1.71v-3h1.71V73h3.26v3.8h2.15v3h-2.15v6.74c0,0.89.3,1.44,1,1.44a1.31,1.31,0,0,0,1-.4l0.68,2.65a3.63,3.63,0,0,1-2.53.81C4054.26,91.05,4053.2,89.81,4053.2,87.37Z" transform="translate(-3967.63 -65.1)"/>
        <path class="cls-3" d="M4067.51,89.33a4.25,4.25,0,0,1-3.45,1.73c-2.09,0-4.07-1.64-4.07-4.61s2-4.49,4.07-4.49a4.22,4.22,0,0,1,3.45,1.64V81.78a2.24,2.24,0,0,0-2.44-2.45,4.51,4.51,0,0,0-3.23,1.53l-1.22-2.36a7.13,7.13,0,0,1,5.08-2c2.83,0,5.08,1.35,5.08,4.92v9.33h-3.26V89.33Zm0-3.71a2.5,2.5,0,0,0-2.23-1.32,2.22,2.22,0,0,0,0,4.43,2.5,2.5,0,0,0,2.23-1.32V85.61Z" transform="translate(-3967.63 -65.1)"/>
        <path class="cls-3" d="M4073.37,72.88a2,2,0,1,1,3.91,0A2,2,0,1,1,4073.37,72.88Zm0.33,3.92H4077V90.71h-3.26V76.8Z" transform="translate(-3967.63 -65.1)"/>
        <path class="cls-3" d="M4087.25,81.55c0-1.47-.62-2-1.71-2a3,3,0,0,0-2.39,1.73v9.47h-3.26V76.8h3.26v1.81a4.84,4.84,0,0,1,3.86-2.16c2.42,0,3.5,1.5,3.5,3.8V90.71h-3.26V81.55Z" transform="translate(-3967.63 -65.1)"/>
        <path class="cls-3" d="M4098.63,76.45c3.64,0,5.65,3.14,5.65,7.43v1H4096c0.14,1.9,1.2,3.4,3.18,3.4a3.87,3.87,0,0,0,2.85-1.35l1.49,2.07a6.18,6.18,0,0,1-4.7,2.07c-3.69,0-6.11-2.94-6.11-7.31C4092.76,79.71,4095,76.45,4098.63,76.45Zm-2.58,6h5.08c0-1.44-.65-3.25-2.55-3.25S4096.1,81.06,4096,82.5Z" transform="translate(-3967.63 -65.1)"/>
        <path class="cls-3" d="M4106.45,76.8h3.26v1.93a4.5,4.5,0,0,1,3.59-2.25v3.4a2.28,2.28,0,0,0-.79-0.12,3.55,3.55,0,0,0-2.8,1.7v9.24h-3.26V76.8Z" transform="translate(-3967.63 -65.1)"/>
        <path class="cls-3" d="M4122.5,89a4.72,4.72,0,0,1-3.86,2.1c-2.42,0-3.5-1.41-3.5-3.74V76.8h3.26V86c0,1.47.65,2,1.74,2a2.91,2.91,0,0,0,2.36-1.67V76.8h3.26V90.71h-3.26V89Z" transform="translate(-3967.63 -65.1)"/>
        <path class="cls-3" d="M4142.7,81.38c0-1.18-.46-1.87-1.49-1.87a2.84,2.84,0,0,0-2.25,1.73v9.47h-3.26V81.38c0-1.12-.43-1.87-1.49-1.87a2.93,2.93,0,0,0-2.25,1.73v9.47h-3.26V76.8h3.26v1.81a4.68,4.68,0,0,1,3.69-2.16,2.93,2.93,0,0,1,3.15,2.42,4.68,4.68,0,0,1,3.86-2.42c2,0,3.31,1.12,3.31,3.69V90.71h-3.26V81.38Z" transform="translate(-3967.63 -65.1)"/>
      </g>
    </g>
    <g>
      <path class="cls-4" d="M4137.7,75.74h-0.92l1.9-8.64h0.92l-0.71,3.24a2.07,2.07,0,0,1,1.7-1c1.1,0,1.83.8,1.83,2.22,0,1.77-1,4.35-2.86,4.35a1.74,1.74,0,0,1-1.65-1.1Zm2.51-5.58a2,2,0,0,0-1.52,1L4138.07,74a1.42,1.42,0,0,0,1.35,1c1.26,0,2-2.1,2-3.39A1.27,1.27,0,0,0,4140.21,70.15Z" transform="translate(-3967.63 -65.1)"/>
      <path class="cls-4" d="M4146.32,69.32a2.07,2.07,0,0,1,2.14,2.33,5.87,5.87,0,0,1-.17,1.26h-4.07a3.16,3.16,0,0,0-.05.6,1.48,1.48,0,0,0,1.57,1.61,2.12,2.12,0,0,0,1.46-.65l0.38,0.62a2.79,2.79,0,0,1-1.93.8,2.24,2.24,0,0,1-2.41-2.46C4143.24,71.78,4144.35,69.32,4146.32,69.32Zm1.27,2.28a1.34,1.34,0,0,0-1.35-1.5c-1,0-1.72,1.14-1.9,2.12h3.19A3.25,3.25,0,0,0,4147.59,71.6Z" transform="translate(-3967.63 -65.1)"/>
      <path class="cls-4" d="M4149.49,74.45l0.93-4.16h-0.84l0.18-.82h0.84l0.38-1.71h0.93l-0.37,1.71h1.06l-0.19.82h-1l-0.89,4a1.19,1.19,0,0,0,0,.31,0.44,0.44,0,0,0,.5.47,0.7,0.7,0,0,0,.49-0.19l0.13,0.74a1.33,1.33,0,0,1-.86.28,1,1,0,0,1-1.26-1A1.79,1.79,0,0,1,4149.49,74.45Z" transform="translate(-3967.63 -65.1)"/>
      <path class="cls-4" d="M4157.39,69.48h0.93l-1.39,6.26H4156l0.19-.85a2,2,0,0,1-1.68,1c-1.11,0-1.83-.8-1.83-2.2,0-1.79,1-4.37,2.85-4.37a1.73,1.73,0,0,1,1.64,1.1Zm-2.5,5.58a1.94,1.94,0,0,0,1.5-1l0.62-2.82a1.42,1.42,0,0,0-1.33-1c-1.26,0-2,2.1-2,3.41A1.26,1.26,0,0,0,4154.89,75.06Z" transform="translate(-3967.63 -65.1)"/>
    </g>
  </g>
</svg>
