<svg xmlns="http://www.w3.org/2000/svg" width="35" height="23" viewBox="0 0 35 23">
    <g fill="none" fill-rule="nonzero">
        <path fill="#29ABE2" d="M32.989 22.66H1.937C.867 22.66 0 21.881 0 20.923V1.736C0 .776.867 0 1.937 0H32.99c1.07 0 1.937.777 1.937 1.736v19.188c0 .958-.867 1.735-1.937 1.735"/>
        <path fill="#FFF" d="M8.43 4.856H3.01c-.332 0-.601-.242-.601-.54 0-.298.269-.54.602-.54h5.42c.332 0 .602.242.602.54 0 .298-.27.54-.603.54M16.259 4.856h-5.42c-.333 0-.602-.242-.602-.54 0-.298.27-.54.602-.54h5.42c.333 0 .602.242.602.54 0 .298-.27.54-.602.54M3.613 7.553h-.602c-.333 0-.602-.242-.602-.54 0-.297.269-.539.602-.539h.602c.333 0 .602.242.602.54 0 .297-.269.54-.602.54M7.226 7.553H6.022c-.333 0-.602-.242-.602-.54 0-.297.269-.539.602-.539h1.204c.333 0 .602.242.602.54 0 .297-.269.54-.602.54M10.237 7.553h-.602c-.333 0-.602-.242-.602-.54 0-.297.269-.539.602-.539h.602c.333 0 .602.242.602.54 0 .297-.27.54-.602.54M13.85 7.553h-1.204c-.333 0-.603-.242-.603-.54 0-.297.27-.539.603-.539h1.204c.333 0 .602.242.602.54 0 .297-.27.54-.602.54M16.259 7.553a.671.671 0 0 1-.428-.156.536.536 0 0 1-.175-.383c0-.14.066-.281.175-.383.223-.2.626-.2.855 0a.538.538 0 0 1 .175.383c0 .14-.066.28-.175.383a.664.664 0 0 1-.427.156"/>
        <path fill="#2C91D0" d="M22.28 3.777h9.635v5.395H22.28z"/>
        <path fill="#FFF" d="M32.517 9.711H21.678V3.237h10.84z"/>
        <path fill="#232C65" d="M2.556 15.333h5.111v2.556H2.556zM10.296 15.333h5.038v2.556h-5.038zM17.889 15.333H23v2.556h-5.111zM25.644 15.333h5.111v2.556h-5.111z"/>
    </g>
</svg>
