<svg xmlns="http://www.w3.org/2000/svg" width="25" height="23" viewBox="0 0 25 23">
    <defs>
        <linearGradient id="a" x1="0%" y1="0%" y2="100%">
            <stop offset="0%" stop-color="#53D5F3"/>
            <stop offset="100%" stop-color="#29ABE2"/>
        </linearGradient>
    </defs>
    <path fill="url(#a)" fill-rule="nonzero" d="M35.715 2207.172l10.606 4.685c.938.435 1.342.435 2.357 0l10.606-4.685c.782-.358.807-1.88 0-2.314l-10.606-5.504c-.833-.485-1.42-.46-2.357 0l-10.606 5.504c-.807.511-.833 1.88 0 2.314zm0 4.908l10.606 4.686c.938.434 1.342.434 2.357 0l10.606-4.686c.525-.24.716-1.367.716-1.975-.682.336-1.648.814-1.666.818l-10.834 4.908-10.834-4.908c.038.022-.958-.42-1.666-.818 0 .594.152 1.682.715 1.975zm11.785 8.66l-10.834-4.909c.038.023-.958-.42-1.666-.817 0 .593.152 1.681.715 1.974l10.606 4.686c.938.435 1.342.435 2.357 0l10.606-4.686c.525-.24.716-1.367.716-1.974-.682.335-1.648.814-1.666.817L47.5 2220.74z" transform="translate(-35 -2199)"/>
</svg>
