<svg xmlns="http://www.w3.org/2000/svg" width="25" height="19" viewBox="0 0 25 19">
    <path fill="#333" fill-rule="nonzero" d="M24.763 8.529a5.286 5.286 0 0 0-2.51-.813 2.777 2.777 0 0 0-.46 0 4.473 4.473 0 0 0-1.708-2.385.516.516 0 0 0-.666.073 4.33 4.33 0 0 0-.75 3.463.554.554 0 0 1-.136.432.466.466 0 0 1-.354.159h-.469V6.86a.524.524 0 0 0-.52-.528h-2.605V.528A.524.524 0 0 0 14.064 0h-3.125a.524.524 0 0 0-.521.528v2.639h-5.73a.524.524 0 0 0-.52.527v2.64H1.562a.524.524 0 0 0-.521.527V9.5H.52a.524.524 0 0 0-.521.528C0 18.124 5.824 19 8.334 19c5.307.016 10.22-2.831 12.897-7.473a5.335 5.335 0 0 0 3.699-2.29.532.532 0 0 0-.167-.708zm-8.095.971h-2.083V7.389h2.083V9.5zm-11.46 0V7.389h2.084V9.5H5.21zm3.126 0V7.389h2.084V9.5H8.334zm5.21-5.278v2.111H11.46v-2.11h2.083zM11.46 9.5V7.389h2.083V9.5H11.46zm0-8.444h2.083v2.11H11.46v-2.11zm-1.042 5.277H8.334v-2.11h2.084v2.11zm-5.21-2.11h2.084v2.11H5.21v-2.11zM2.085 7.388h2.083V9.5H2.084V7.389zm3.125 7.389a1.049 1.049 0 0 1-1.042-1.056c0-.583.467-1.055 1.042-1.055s1.042.472 1.042 1.055-.467 1.056-1.042 1.056z"/>
</svg>
