<svg xmlns="http://www.w3.org/2000/svg" width="23" height="30" viewBox="0 0 23 30">
    <g fill="#29ABE2" fill-rule="nonzero">
        <path d="M22.496 6.072a.701.701 0 0 0-.204-.49L16.915.207A.7.7 0 0 0 16.417 0H1.481A1.48 1.48 0 0 0 .002 1.479V28.52A1.48 1.48 0 0 0 1.482 30h19.537a1.48 1.48 0 0 0 1.479-1.479V6.08l-.002-.007zm-5.375-3.674l2.978 2.979h-2.904a.074.074 0 0 1-.074-.074V2.398zm3.972 26.123c0 .041-.033.074-.074.074H1.48a.074.074 0 0 1-.074-.074V1.48c0-.041.033-.074.074-.074h14.235v3.898a1.48 1.48 0 0 0 1.479 1.479h3.898v21.74z"/>
        <path d="M17.466 9.61H5.034a.702.702 0 0 0 0 1.405h12.432a.702.702 0 0 0 0-1.405zM17.466 13.849H5.034a.702.702 0 0 0 0 1.405h12.432a.702.702 0 0 0 0-1.405zM17.466 18.087H5.034a.702.702 0 0 0 0 1.405h12.432a.702.702 0 0 0 0-1.405zM11.25 22.326H5.034a.702.702 0 0 0 0 1.405h6.216a.702.702 0 0 0 0-1.405z"/>
    </g>
</svg>
