<svg xmlns="http://www.w3.org/2000/svg" width="23" height="20" viewBox="0 0 23 20">
    <path fill="#FE4A49" fill-rule="nonzero" d="M22.745 17.19L13.162.94A1.927 1.927 0 0 0 11.5 0c-.71 0-1.33.379-1.662.94L.255 17.19a1.84 1.84 0 0 0-.255.935C0 19.16.859 20 1.917 20h19.166C22.141 20 23 19.16 23 18.125c0-.34-.093-.66-.255-.935zM2 18l9.499-16h.002v.002L21 17.998 2 18zm9.5-4a1.5 1.5 0 1 0 .001 3.001A1.5 1.5 0 0 0 11.5 14zM10 8.333c0 .076.008.152.021.224l.739 3.888c.06.316.369.555.74.555s.68-.24.74-.555l.738-3.888c.014-.072.022-.148.022-.224C13 7.597 12.329 7 11.5 7c-.828 0-1.5.597-1.5 1.333z"/>
</svg>
