<?xml version="1.0" encoding="UTF-8"?>
<svg width="14px" height="8px" viewBox="0 0 14 8" version="1.1" xmlns="http://www.w3.org/2000/svg" xmlns:xlink="http://www.w3.org/1999/xlink">
    <!-- Generator: sketchtool 46.2 (44496) - http://www.bohemiancoding.com/sketch -->
    <title>FA959B19-8447-4C53-9FFA-0C8A4F63581B</title>
    <desc>Created with sketchtool.</desc>
    <defs></defs>
    <g id="ЛК-Panel" stroke="none" stroke-width="1" fill="none" fill-rule="evenodd">
        <g id="UI-Kit" transform="translate(-268.000000, -2115.000000)" stroke="#29ABE2" fill-rule="nonzero" stroke-width="0.5" fill="#29ABE2">
            <g id="Море" transform="translate(275.000000, 2119.000000) scale(1, -1) translate(-275.000000, -2119.000000) translate(269.000000, 2116.000000)">
                <path d="M8.90746133,2.76077959 L3.54926834,-2.90003667 C3.4231092,-3.03332111 3.2207785,-3.03332111 3.09461936,-2.90003667 C2.96846021,-2.76675224 2.96846021,-2.55299418 3.09461936,-2.41970975 L8.22429768,2.99968565 L3.09461936,8.41908105 C2.96846021,8.55236548 2.96846021,8.76612354 3.09461936,8.89940797 C3.15650875,8.96479279 3.23982139,9 3.32075367,9 C3.40168595,9 3.48499859,8.96730759 3.54688798,8.89940797 L8.90508097,3.23859171 C9.03124012,3.10782208 9.03124012,2.89154922 8.90746133,2.76077959 Z" id="Shape" transform="translate(6.000000, 3.000000) rotate(90.000000) translate(-6.000000, -3.000000) "></path>
            </g>
        </g>
    </g>
</svg>