<?xml version="1.0" encoding="UTF-8"?>
<svg width="23px" height="23px" viewBox="0 0 23 23" version="1.1" xmlns="http://www.w3.org/2000/svg" xmlns:xlink="http://www.w3.org/1999/xlink">
    <!-- Generator: sketchtool 46.2 (44496) - http://www.bohemiancoding.com/sketch -->
    <title>E01A13E4-8C66-4CE0-8378-1437DB9FD84C</title>
    <desc>Created with sketchtool.</desc>
    <defs>
        <linearGradient x1="0%" y1="0%" x2="100%" y2="100%" id="linearGradient-1">
            <stop stop-color="#53D5F3" offset="0%"></stop>
            <stop stop-color="#29ABE2" offset="100%"></stop>
        </linearGradient>
    </defs>
    <g id="ЛК-Panel" stroke="none" stroke-width="1" fill="none" fill-rule="evenodd">
        <g id="UI-Kit" transform="translate(-408.000000, -2197.000000)" fill-rule="nonzero" fill="url(#linearGradient-1)">
            <g id="link" transform="translate(408.000000, 2197.000000)">
                <path d="M14.5361474,8.61102408 C14.2539057,8.33005083 13.9409552,8.08098753 13.603112,7.86839273 C12.7082764,7.30133512 11.6679928,7.0000095 10.605422,7.0000095 C9.13060904,6.99729278 7.71572472,7.57719725 6.67469667,8.61102408 L1.62431013,13.6129649 C0.585050166,14.6434303 0.000931720299,16.0395938 1.15084569e-06,17.4954791 C-0.00195304501,20.5336002 2.48508688,22.998033 5.5550355,22.9999669 C7.02756861,23.005032 8.44115014,22.4278903 9.48180596,21.3968262 L13.6507571,17.2710965 C13.7265055,17.1967781 13.7687998,17.0953846 13.768195,16.989847 C13.7669387,16.7728318 13.5881298,16.5979487 13.3688411,16.599192 L13.2100394,16.599192 C12.3390264,16.602231 11.4757837,16.4366953 10.6689799,16.1119783 C10.5203215,16.0514277 10.3494689,16.0855939 10.2362186,16.1984068 L7.2385287,19.1689322 C6.30768008,20.0901303 4.79848254,20.0901303 3.86763391,19.1689322 C2.93678529,18.2477341 2.93678529,16.7541831 3.86763391,15.832985 L8.93788811,10.8192564 C9.86799228,9.89994625 11.3747238,9.89994625 12.304828,10.8192564 C12.9316596,11.4030748 13.9094089,11.4030748 14.5361939,10.8192564 C14.805873,10.5521431 14.969374,10.1978645 14.9967793,9.82120743 C15.0257665,9.37110689 14.8580314,8.93030767 14.5361474,8.61102408 Z" id="Shape"></path>
                <path d="M21.3727091,1.61125696 C19.2029646,-0.537085654 15.685111,-0.537085654 13.5153665,1.61125696 L9.35254679,5.72905561 C9.23823957,5.84278788 9.20526812,6.01384673 9.26921134,6.16128427 C9.33241049,6.30913621 9.48010769,6.40403588 9.64222119,6.40095084 L9.78903482,6.40095084 C10.6585696,6.39938529 11.5199661,6.56620796 12.3248136,6.89211767 C12.4733943,6.95266743 12.6441576,6.91850171 12.7573487,6.80569035 L15.7455199,3.85090771 C16.6758821,2.92972241 18.184291,2.92972241 19.1146532,3.85090771 C20.0450153,4.772093 20.0450153,6.26562326 19.1146532,7.18680855 L15.3923208,10.8684647 L15.3605585,10.9038276 L14.0589536,12.184766 C13.1293355,13.1040634 11.6233913,13.1040634 10.6937732,12.184766 C10.0672692,11.6009557 9.09003082,11.6009557 8.4635733,12.184766 C8.19231455,12.4539017 8.02875942,12.8112604 8.00322864,13.1906289 C7.97421005,13.6407232 8.14185754,14.0815163 8.4635733,14.4008415 C8.92289487,14.8575663 9.46029692,15.230028 10.0508997,15.5010054 C10.1342352,15.5402822 10.2175706,15.5717313 10.3009061,15.6070942 C10.3842415,15.6424571 10.4715298,15.6699462 10.5548653,15.7013952 C10.6382007,15.7328443 10.725489,15.7603334 10.8088245,15.7839087 L11.0429729,15.8467607 C11.2016916,15.8860375 11.3604568,15.9174866 11.5231284,15.9449757 C11.7190969,15.9738001 11.9164605,15.9921723 12.1144287,16 L12.3921981,16 L12.6541095,15.9725109 C12.7413978,15.968597 12.8326855,15.9489356 12.9358782,15.9489356 L13.0707868,15.9489356 L13.3446032,15.9096588 L13.4716061,15.8860836 L13.7017552,15.838933 C14.7201962,15.5965037 15.6102858,15.0967724 16.3208694,14.3929677 L21.3725695,9.39109639 C23.5424536,7.24275378 23.5424536,3.75959958 21.3727091,1.61125696 Z" id="Shape"></path>
            </g>
        </g>
    </g>
</svg>