<svg xmlns="http://www.w3.org/2000/svg" width="487" height="700" viewBox="0 0 487 700">
    <defs>
        <linearGradient id="a" x1="100%" x2="0%" y1="100%" y2="0%">
            <stop offset="0%" stop-color="#4285F4"/>
            <stop offset="100%" stop-color="#29ABE2"/>
        </linearGradient>
    </defs>
    <g fill="none" fill-rule="evenodd">
        <path fill="url(#a)" d="M0 0h485v700H0z" transform="translate(1)"/>
        <g stroke="#4A4A4A" opacity=".52">
            <g opacity=".31">
                <path d="M1.15 549.765v-74.628M70.376 587.072l69.227-37.307v-74.628l-69.227-37.306L1.15 475.137v74.628"/>
                <path d="M278.056 475.137l-69.226-37.306-69.227 37.306v74.628l69.227 37.307 69.226-37.307zM416.51 475.137l-69.227-37.306-69.227 37.306v74.628l69.227 37.307 69.227-37.307zM1.15 475.642l69.226-37.321"/>
                <path d="M70.376 438.321l69.227 37.321 69.227-37.321v-74.613l-69.227-37.322M347.283 363.708l-69.227-37.322-69.226 37.322v74.613l69.226 37.321 69.227-37.321zM485.737 363.708l-69.227-37.322-69.227 37.322v74.613l69.227 37.321 69.227-37.321zM1.15 699.467l69.226-37.321v-74.613M208.83 587.533l-69.227-37.322-69.227 37.322v74.613l69.227 37.321 69.227-37.321zM347.283 587.533l-69.227-37.322-69.226 37.322v74.613l69.226 37.321 69.227-37.321zM485.737 587.533L416.51 550.21l-69.227 37.322v74.613l69.227 37.321 69.227-37.321z"/>
            </g>
            <g opacity=".31">
                <path d="M1.15 401.368l69.226 37.321 69.227-37.321V326.74"/>
                <path d="M278.056 326.74l-69.226-37.307-69.227 37.307v74.628l69.227 37.321 69.226-37.321zM416.51 326.74l-69.227-37.307-69.227 37.307v74.628l69.227 37.321 69.227-37.321zM70.376 662.5l69.227-37.307v-74.628l-69.227-37.307L1.15 550.565"/>
                <path d="M278.056 550.565l-69.226-37.307-69.227 37.307v74.628l69.227 37.306 69.226-37.306zM416.51 550.565l-69.227-37.307-69.227 37.307v74.628l69.227 37.306 69.227-37.306zM1.15 551.07l69.226-37.307v-74.628L1.15 401.814"/>
                <path d="M208.83 439.135l-69.227-37.321-69.227 37.321v74.628l69.227 37.307 69.227-37.307zM347.283 439.135l-69.227-37.321-69.226 37.321v74.628l69.226 37.307 69.227-37.307zM485.737 439.135l-69.227-37.321-69.227 37.321v74.628l69.227 37.307 69.227-37.307z"/>
            </g>
        </g>
    </g>
</svg>
