<?xml version="1.0" encoding="UTF-8"?>
<svg width="133px" height="27px" viewBox="0 0 133 27" version="1.1" xmlns="http://www.w3.org/2000/svg" xmlns:xlink="http://www.w3.org/1999/xlink">
    <!-- Generator: Sketch 50.2 (55047) - http://www.bohemiancoding.com/sketch -->
    <title>logo_containerum_white</title>
    <desc>Created with Sketch.</desc>
    <defs></defs>
    <g id="Page-1" stroke="none" stroke-width="1" fill="none" fill-rule="evenodd">
        <g id="Log-In-2" transform="translate(-896.000000, -689.000000)">
            <g id="logo_containerum_white" transform="translate(896.000000, 689.000000)">
                <path d="M25.9117479,11.5803146 L25.9117479,4.72056998 C25.8853342,4.25797785 25.6504428,3.83577361 25.27851,3.58236051 L19.5891117,0.157569491 C19.1909739,-0.0525231638 18.720774,-0.0525231638 18.3226361,0.157569491 L12.6332378,3.58236051 C12.2613051,3.83577361 12.0264136,4.25797785 12,4.72056998 L12,11.5803146 C12.0264136,12.0429067 12.2613051,12.465111 12.6332378,12.7185241 L18.3226361,16.1433151 C18.720774,16.3534077 19.1909739,16.3534077 19.5891117,16.1433151 L25.27851,12.7185241 C25.6504428,12.465111 25.8853342,12.0429067 25.9117479,11.5803146 Z" id="Shape" fill="#29ABE2" fill-rule="nonzero"></path>
                <path d="M28.6200573,16.4481926 L25.2395415,14.4156757 C25.0038314,14.2907563 24.7251085,14.2907563 24.4893983,14.4156757 L21.1088825,16.4481926 C20.8846127,16.5981887 20.7432184,16.8515805 20.7289398,17.1290858 L20.7289398,21.1941196 C20.7447782,21.471136 20.8857905,21.7238434 21.1088825,21.8750128 L24.4893983,23.9075297 C24.7254792,24.0308234 25.0034606,24.0308234 25.2395415,23.9075297 L28.6200573,21.8750128 C28.8443271,21.7250168 28.9857214,21.4716249 29,21.1941196 L29,17.1290858 C28.9857214,16.8515805 28.8443271,16.5981887 28.6200573,16.4481926 Z" id="Path" fill="#FFCB31"></path>
                <path d="M11.7197328,14.3141868 C10.9576378,13.8299937 10.4822534,12.9907956 10.4519252,12.0761212 L10.4519252,5.20932875 C10.4596963,4.76196869 10.5799989,4.32412651 10.801321,3.93770052 L10.2622532,3.62233672 C9.72539127,3.3466535 9.09206726,3.3466535 8.55520528,3.62233672 L0.858515349,8.1493332 C0.354146816,8.48397442 0.0355598941,9.04269123 0,9.65494102 L0,18.708934 C0.0355598941,19.3211838 0.354146816,19.8799006 0.858515349,20.2145418 L8.55520528,24.7415383 C9.09206726,25.0172215 9.72539127,25.0172215 10.2622532,24.7415383 L17.9589432,20.2145418 C18.4633117,19.8799006 18.7818986,19.3211838 18.8174585,18.708934 L18.8174585,18.0782064 C18.3733547,18.0809196 17.9362815,17.9651846 17.549651,17.7424965 L11.7197328,14.3141868 Z M31.9447572,7.84414243 C31.9447572,3.43922226 34.1409592,0.326276368 37.5949861,0.326276368 C40.2204458,0.326276368 41.4483224,2.13707496 42.1570967,3.83597027 L39.9009983,4.85327284 C39.6494608,3.75118442 38.7136893,2.95098206 37.6049689,2.88987887 C35.8280417,2.88987887 34.719958,4.92448403 34.719958,7.81362335 C34.719958,10.7027627 35.8280417,12.7373678 37.6049689,12.7373678 C38.7592369,12.650597 39.7107745,11.7812327 39.9209637,10.6213785 L42.1570967,11.638681 C41.4882534,13.3782685 40.2603768,15.3009703 37.5949861,15.3009703 C34.1409592,15.3620085 31.9447572,12.2490626 31.9447572,7.84414243 Z M43.1354049,9.82788246 C43.1354049,6.887878 44.6727464,4.31410248 47.5278091,4.31410248 C50.3828717,4.31410248 51.9401786,6.887878 51.9401786,9.82788246 C51.9401786,12.7678869 50.4228027,15.3620085 47.5278091,15.3620085 C44.6328154,15.3620085 43.1354049,12.788233 43.1354049,9.82788246 Z M49.4444945,9.82788246 C49.4444945,8.1086411 48.855513,6.62337933 47.5278091,6.62337933 C46.2001051,6.62337933 45.6310891,8.1086411 45.6310891,9.82788246 C45.6310891,11.5471238 46.240036,13.0527316 47.5278091,13.0527316 C48.8155821,13.0527316 49.4444945,11.5674699 49.4444945,9.82788246 Z M59.1077835,8.16967925 C59.1077835,7.06081944 58.6485776,6.62337933 57.839976,6.62337933 C57.0610415,6.70830286 56.3847165,7.20779156 56.0630489,7.93569966 L56.0630489,15.0568177 L53.6472266,15.0568177 L53.6472266,4.52773602 L56.0630489,4.52773602 L56.0630489,5.98247871 C56.7029962,4.99763677 57.769774,4.3877932 58.9280943,4.34462156 C60.7249869,4.34462156 61.5335885,5.47382742 61.5335885,7.22358785 L61.5335885,15.1382019 L59.1177663,15.1382019 L59.1177663,8.21037136 L59.1077835,8.16967925 Z M64.1291001,12.5745994 L64.1291001,6.86753195 L62.8612925,6.86753195 L62.8612925,4.57860115 L64.1291001,4.57860115 L64.1291001,1.69963485 L66.5449223,1.69963485 L66.5449223,4.57860115 L68.1421602,4.57860115 L68.1421602,6.86753195 L66.5449223,6.86753195 L66.5449223,11.9540448 C66.5449223,12.6254645 66.7645425,13.0425586 67.2536966,13.0425586 C67.5273961,13.0469481 67.7908569,12.9366127 67.9824364,12.7373678 L68.4815732,14.771973 C67.9539762,15.209468 67.2835705,15.4275057 66.6048187,15.3823545 C64.9077535,15.3620085 64.1291001,14.4260901 64.1291001,12.5745994 Z M74.7507318,14.0598612 C74.151706,14.8914571 73.197444,15.379575 72.1851685,15.3721815 C71.324634,15.3398321 70.5153478,14.9470072 69.9484303,14.2864761 C69.3815127,13.625945 69.1072268,12.7562703 69.1903475,11.8828337 C69.0932307,11.0153737 69.3653372,10.1470638 69.9378439,9.4975232 C70.5103506,8.8479826 71.3284303,8.4794157 72.1851685,8.48504305 C73.1857572,8.4575839 74.1390478,8.91874487 74.7507318,9.7261522 L74.7507318,8.35279372 C74.797582,7.84861942 74.621271,7.34943148 74.2698694,6.99133154 C73.9184678,6.63323159 73.4286173,6.45355982 72.9338738,6.50130302 C72.0125295,6.53481318 71.1456295,6.95443989 70.538017,7.66102796 L69.6295879,5.87057542 C70.6350051,4.86338479 71.9933084,4.30677729 73.4030624,4.3242755 C75.4994371,4.3242755 77.1765368,5.34157808 77.1765368,8.04760294 L77.1765368,15.1382019 L74.7607146,15.1382019 L74.7607146,14.1208993 L74.7507318,14.0598612 Z M74.7507318,11.2521061 C74.4290289,10.6233801 73.789387,10.2307086 73.0935975,10.2348035 C72.2537656,10.3291711 71.6180832,11.0523251 71.6180832,11.9133527 C71.6180832,12.7743804 72.2537656,13.4975344 73.0935975,13.591902 C73.789387,13.5959969 74.4290289,13.2033254 74.7507318,12.5745994 L74.7507318,11.221587 L74.7507318,11.2521061 Z M79.103205,1.60807762 C79.0577626,1.04996671 79.3242402,0.513256685 79.7924048,0.219967151 C80.2605693,-0.0733223836 80.850817,-0.0733223836 81.3189816,0.219967151 C81.7871461,0.513256685 82.0536237,1.04996671 82.0081813,1.60807762 C82.0536237,2.16618853 81.7871461,2.70289855 81.3189816,2.99618809 C80.850817,3.28947762 80.2605693,3.28947762 79.7924048,2.99618809 C79.3242402,2.70289855 79.0577626,2.16618853 79.103205,1.60807762 Z M79.3427907,4.56842812 L81.7586129,4.56842812 L81.7586129,15.1382019 L79.3427907,15.1382019 L79.3427907,4.60912023 L79.3427907,4.56842812 Z M89.4153719,8.16967925 C89.4153719,7.06081944 88.956166,6.62337933 88.1475644,6.62337933 C87.3686299,6.70830286 86.6923049,7.20779156 86.3706372,7.93569966 L86.3706372,15.0568177 L83.954815,15.0568177 L83.954815,4.52773602 L86.3706372,4.52773602 L86.3706372,5.98247871 C87.0105846,4.99763677 88.0773623,4.3877932 89.2356827,4.34462156 C91.0325752,4.34462156 91.8411769,5.47382742 91.8411769,7.22358785 L91.8411769,15.1382019 L89.4253546,15.1382019 L89.4253546,8.21037136 L89.4153719,8.16967925 Z M97.8607671,4.31410248 C100.566089,4.31410248 102.053516,6.68441749 102.053516,9.93978574 L102.053516,10.6824166 L95.9340989,10.6824166 C95.8987247,11.3455336 96.1299443,11.9947241 96.5744592,12.4803427 C97.018974,12.9659613 97.638426,13.246103 98.2900248,13.2561921 C99.1051029,13.2382134 99.8743663,12.8684365 100.406365,12.2388896 L101.514449,13.8055355 C100.628054,14.8196755 99.3530466,15.3913726 98.0204909,15.3721815 C95.2752383,15.3721815 93.4783457,13.1442889 93.4783457,9.83805548 C93.5082939,6.77597472 95.1554455,4.31410248 97.8607671,4.31410248 Z M95.9440817,8.89196408 L99.7175561,8.89196408 C99.7175561,7.80345032 99.2383847,6.43009184 97.8208361,6.43009184 C96.4032875,6.43009184 95.9840126,7.80345032 95.9340989,8.89196408 L95.9440817,8.89196408 Z M103.67072,4.57860115 L106.086542,4.57860115 L106.086542,6.04351686 C106.640821,5.05912408 107.640801,4.42174574 108.751933,4.34462156 L108.751933,6.91839708 C108.561879,6.85596211 108.362458,6.82840649 108.162951,6.83701287 C107.307415,6.89463855 106.532863,7.37278187 106.086542,8.11881412 L106.086542,15.1382019 L103.67072,15.1382019 L103.67072,4.60912023 L103.67072,4.57860115 Z M115.590107,13.7750165 C114.949548,14.7522372 113.878157,15.3456969 112.725062,15.3620085 C110.928169,15.3620085 110.119568,14.3447059 110.119568,12.5237343 L110.119568,4.56842812 L112.53539,4.56842812 L112.53539,11.5166047 C112.448818,11.9036489 112.547603,12.3095947 112.801602,12.6105726 C113.055602,12.9115505 113.434679,13.0718504 113.823163,13.0425586 C114.586647,12.9686564 115.254881,12.4888808 115.580125,11.7811034 L115.580125,4.56842812 L117.995947,4.56842812 L117.995947,15.1382019 L115.580125,15.1382019 L115.580125,13.8055355 L115.590107,13.7750165 Z M130.59416,8.01708387 C130.673935,7.67330937 130.594177,7.31124634 130.377865,7.03520616 C130.161553,6.75916597 129.83271,6.59980415 129.486077,6.60303328 C128.736475,6.7021298 128.096451,7.2029446 127.808977,7.91535361 L127.808977,15.0364717 L125.383172,15.0364717 L125.383172,8.01708387 C125.458892,7.67378884 125.377577,7.31402643 125.16212,7.03907689 C124.946663,6.76412736 124.620366,6.60372758 124.275088,6.60303328 C123.53107,6.71571802 122.896903,7.21194962 122.597988,7.91535361 L122.597988,15.0364717 L120.182166,15.0364717 L120.182166,4.50738997 L122.597988,4.50738997 L122.597988,5.98247871 C123.199619,5.01656004 124.222216,4.40646434 125.343241,4.34462156 C126.470695,4.24309183 127.4863,5.03921853 127.679201,6.1757662 C128.258535,5.10089794 129.34247,4.40811964 130.544247,4.34462156 C132.041657,4.34462156 133,5.1889827 133,7.13203062 L133,15.1382019 L130.584178,15.1382019 L130.584178,8.01708387 L130.59416,8.01708387 Z" id="Shape" fill="#333333" fill-rule="nonzero"></path>
                <text id="Created-by-Exon-LV" font-family="OpenSans-Light, Open Sans" font-size="9" font-weight="300" letter-spacing="-0.300000012" fill="#333333">
                    <tspan x="33" y="24">Created by Exon L</tspan>
                    <tspan x="100.620703" y="24">V </tspan>
                </text>
            </g>
        </g>
    </g>
</svg>