<?xml version="1.0" encoding="UTF-8"?>
<svg width="22px" height="6px" viewBox="0 0 22 6" version="1.1" xmlns="http://www.w3.org/2000/svg" xmlns:xlink="http://www.w3.org/1999/xlink">
    <!-- Generator: sketchtool 46.2 (44496) - http://www.bohemiancoding.com/sketch -->
    <title>78A06B09-E6AE-4239-9A9F-11D2FAF1BCBC</title>
    <desc>Created with sketchtool.</desc>
    <defs></defs>
    <g id="ЛК-Panel" stroke="none" stroke-width="1" fill="none" fill-rule="evenodd">
        <g id="UI-Kit" transform="translate(-121.000000, -2116.000000)" fill-rule="nonzero" fill="#EAEAEA">
            <g id="more" transform="translate(121.000000, 2116.000000)">
                <path d="M3,0 C1.345875,0 0,1.345875 0,3 C0,4.654125 1.345875,6 3,6 C4.654125,6 6,4.654125 6,3 C6,1.345875 4.654125,0 3,0 Z" id="Shape"></path>
                <path d="M19,0 C17.345875,0 16,1.345875 16,3 C16,4.654125 17.345875,6 19,6 C20.654125,6 22,4.654125 22,3 C22,1.345875 20.654125,0 19,0 Z" id="Shape"></path>
                <path d="M11,0 C9.345875,0 8,1.345875 8,3 C8,4.654125 9.345875,6 11,6 C12.654125,6 14,4.654125 14,3 C14,1.345875 12.654125,0 11,0 Z" id="Shape"></path>
            </g>
        </g>
    </g>
</svg>