<?xml version="1.0" encoding="UTF-8"?>
<svg width="428px" height="512px" viewBox="0 0 428 512" version="1.1" xmlns="http://www.w3.org/2000/svg" xmlns:xlink="http://www.w3.org/1999/xlink">
    <!-- Generator: Sketch 52 (66869) - http://www.bohemiancoding.com/sketch -->
    <title>notification</title>
    <desc>Created with Sketch.</desc>
    <g id="Page-1" stroke="none" stroke-width="1" fill="none" fill-rule="evenodd">
        <g id="notification" fill="#29ABE2">
            <path d="M425.819,431.851 L389.168,370.795 C372.272,342.614 363.333,310.358 363.333,277.483 L363.333,224 C363.333,141.675 296.325,74.667 214,74.667 C131.675,74.667 64.667,141.675 64.667,224 L64.667,277.483 C64.667,310.358 55.728,342.614 38.832,370.795 L2.181,431.851 C0.197,435.136 0.154,439.254 2.032,442.582 C3.931,445.931 7.493,448.001 11.333,448.001 L416.666,448.001 C420.506,448.001 424.069,445.932 425.967,442.582 C427.845,439.253 427.803,435.136 425.819,431.851 Z M30.171,426.667 L57.115,381.76 C76.016,350.272 86,314.219 86,277.483 L86,224 C86,153.408 143.408,96 214,96 C284.592,96 342,153.408 342,224 L342,277.483 C342,314.219 351.984,350.272 370.864,381.76 L397.829,426.667 L30.171,426.667 Z" id="Shape" fill-rule="nonzero"></path>
            <path d="M214,0 C190.469,0 171.333,19.136 171.333,42.667 L171.333,85.334 C171.333,91.221 176.112,96 182,96 C187.888,96 192.667,91.221 192.667,85.333 L192.667,42.667 C192.667,30.891 202.224,21.334 214,21.334 C225.776,21.334 235.333,30.891 235.333,42.667 L235.333,85.334 C235.333,91.221 240.112,96 246,96 C251.888,96 256.667,91.221 256.667,85.333 L256.667,42.667 C256.667,19.136 237.531,0 214,0 Z" id="Path"></path>
            <path d="M260.165,431.936 C257.157,426.859 250.65,425.195 245.552,428.117 C240.453,431.104 238.747,437.653 241.733,442.73 C244.506,447.445 246.021,453.098 246.021,458.666 C246.021,476.309 231.664,490.666 214.021,490.666 C196.378,490.666 182.021,476.309 182.021,458.666 C182.021,453.098 183.536,447.445 186.309,442.73 C189.274,437.631 187.568,431.103 182.49,428.117 C177.349,425.194 170.863,426.858 167.877,431.936 C163.162,440 160.666,449.237 160.666,458.667 C160.667,488.085 184.581,512 214,512 C243.419,512 267.333,488.085 267.376,458.667 C267.376,449.237 264.88,440 260.165,431.936 Z" id="Path"></path>
        </g>
    </g>
</svg>