<svg xmlns="http://www.w3.org/2000/svg" width="380" height="232" viewBox="0 0 380 232">
    <defs>
        <filter id="a" width="104.6%" height="107.7%" x="-1.8%" y="-2.9%" filterUnits="objectBoundingBox">
            <feOffset dx="2" dy="2" in="SourceAlpha" result="shadowOffsetOuter1"/>
            <feGaussianBlur in="shadowOffsetOuter1" result="shadowBlurOuter1" stdDeviation="2.5"/>
            <feColorMatrix in="shadowBlurOuter1" result="shadowMatrixOuter1" values="0 0 0 0 0 0 0 0 0 0 0 0 0 0 0 0 0 0 0.05 0"/>
            <feMerge>
                <feMergeNode in="shadowMatrixOuter1"/>
                <feMergeNode in="SourceGraphic"/>
            </feMerge>
        </filter>
    </defs>
    <g fill="none" fill-rule="evenodd" filter="url(#a)" transform="translate(3 3)">
        <rect width="370" height="222" fill="#FFF" rx="4"/>
        <path fill="#F6F6F6" fill-rule="nonzero" stroke="#F6F6F6" stroke-width="2.5" d="M54.818 31.606L44.182 25.29a2.555 2.555 0 0 0-2.364 0l-10.636 6.316A2.698 2.698 0 0 0 30 33.71v12.58a2.709 2.709 0 0 0 1.182 2.105l10.636 6.316c.743.384 1.62.384 2.364 0l10.636-6.316A2.698 2.698 0 0 0 56 46.29V33.711a2.698 2.698 0 0 0-1.182-2.105z"/>
        <g fill="#F6F6F6" fill-rule="nonzero">
            <path d="M321 37c-1.654 0-3 1.346-3 3s1.346 3 3 3 3-1.346 3-3-1.346-3-3-3zM337 37c-1.654 0-3 1.346-3 3s1.346 3 3 3 3-1.346 3-3-1.346-3-3-3zM329 37c-1.654 0-3 1.346-3 3s1.346 3 3 3 3-1.346 3-3-1.346-3-3-3z"/>
        </g>
        <rect width="310" height="20" x="30" y="70" fill="#F6F6F6" rx="2"/>
        <rect width="310" height="82" x="30" y="115" fill="#F6F6F6" rx="2"/>
    </g>
</svg>
