<svg xmlns="http://www.w3.org/2000/svg" width="1180" height="211" viewBox="0 0 1180 211">
    <defs>
        <filter id="a" width="101.5%" height="108.5%" x="-.6%" y="-3.2%" filterUnits="objectBoundingBox">
            <feOffset dx="2" dy="2" in="SourceAlpha" result="shadowOffsetOuter1"/>
            <feGaussianBlur in="shadowOffsetOuter1" result="shadowBlurOuter1" stdDeviation="2.5"/>
            <feColorMatrix in="shadowBlurOuter1" result="shadowMatrixOuter1" values="0 0 0 0 0 0 0 0 0 0 0 0 0 0 0 0 0 0 0.05 0"/>
            <feMerge>
                <feMergeNode in="shadowMatrixOuter1"/>
                <feMergeNode in="SourceGraphic"/>
            </feMerge>
        </filter>
    </defs>
    <g fill="none" fill-rule="evenodd" filter="url(#a)" transform="translate(3 3)">
        <rect width="1170" height="201" fill="#FFF" rx="4"/>
        <rect width="538" height="20" x="32" y="30" fill="#F6F6F6" rx="2"/>
        <rect width="1108" height="111" x="32" y="70" fill="#F6F6F6" rx="2"/>
        <g fill="#F6F6F6" fill-rule="nonzero">
            <path d="M1121 36c-1.654 0-3 1.346-3 3s1.346 3 3 3 3-1.346 3-3-1.346-3-3-3zM1137 36c-1.654 0-3 1.346-3 3s1.346 3 3 3 3-1.346 3-3-1.346-3-3-3zM1129 36c-1.654 0-3 1.346-3 3s1.346 3 3 3 3-1.346 3-3-1.346-3-3-3z"/>
        </g>
    </g>
</svg>
