<svg xmlns="http://www.w3.org/2000/svg" width="75" height="23" viewBox="0 0 75 23">
    <g fill="none" fill-rule="nonzero">
        <path fill="#139AD6" d="M58.087 5.897h-3.918c-.23 0-.46.286-.576.572L51.98 19.033c0 .286.115.429.346.429H54.4c.23 0 .345-.143.345-.429l.461-3.57c0-.285.23-.57.576-.57h1.268c2.65 0 4.148-1.571 4.493-4.712.23-1.285 0-2.427-.46-3.141-.692-.714-1.729-1.143-2.996-1.143m.46 4.712c-.23 1.714-1.267 1.714-2.304 1.714h-.691l.46-3.284c0-.143.116-.286.346-.286h.23c.692 0 1.384 0 1.73.571.23.143.23.571.23 1.285"/>
        <g fill="#263B80">
            <path d="M28.653 5.933h-4.07c-.24 0-.48.282-.6.563l-1.676 12.402c0 .282.12.423.36.423h1.915c.24 0 .479-.282.599-.564l.479-3.382c0-.282.24-.564.598-.564h1.317c2.754 0 4.31-1.55 4.67-4.65.24-1.269 0-2.396-.479-3.1-.718-.706-1.676-1.128-3.113-1.128m.479 4.65c-.24 1.691-1.317 1.691-2.395 1.691h-.598l.479-3.241c0-.14.12-.282.359-.282h.24c.718 0 1.436 0 1.795.564.12.14.24.564.12 1.268M40.985 10.442H39.07c-.12 0-.36.141-.36.282l-.12.705-.119-.282c-.479-.705-1.317-.987-2.275-.987-2.155 0-4.07 1.973-4.43 4.651-.24 1.41.12 2.678.718 3.523.6.846 1.437 1.128 2.515 1.128 1.796 0 2.754-1.269 2.754-1.269l-.12.705c0 .282.12.423.36.423h1.795c.24 0 .48-.282.599-.564l1.077-7.892c-.12-.14-.359-.423-.479-.423m-2.753 4.51c-.24 1.268-1.078 2.255-2.275 2.255-.599 0-1.078-.282-1.317-.564-.24-.423-.36-.986-.36-1.691.12-1.268 1.078-2.255 2.156-2.255.598 0 .958.282 1.317.564.359.423.479 1.127.479 1.69"/>
        </g>
        <path fill="#139AD6" d="M70.071 10.312H68.18c-.118 0-.355.143-.355.286l-.118.714-.118-.286c-.473-.714-1.3-1-2.247-1-2.129 0-4.021 2.001-4.376 4.718-.236 1.43.118 2.716.71 3.574.591.858 1.419 1.144 2.483 1.144 1.774 0 2.72-1.287 2.72-1.287l-.118.715c0 .286.118.429.355.429h1.774c.236 0 .473-.286.591-.572l1.065-8.007c-.119-.142-.237-.428-.474-.428m-2.72 4.575c-.236 1.286-1.064 2.287-2.247 2.287-.59 0-1.064-.286-1.3-.572-.237-.429-.355-1-.355-1.715.118-1.287 1.064-2.288 2.128-2.288.592 0 .947.286 1.301.572.473.429.592 1.144.473 1.716"/>
        <path fill="#263B80" d="M50.954 10.615H49.05c-.224 0-.336.143-.448.285l-2.465 4.84-1.12-4.555c-.112-.285-.224-.427-.56-.427h-1.793c-.224 0-.336.284-.336.57l2.017 7.544-1.905 3.416c-.112.285 0 .712.224.712h1.793c.224 0 .336-.142.448-.285l6.162-11.246c.336-.427.112-.854-.112-.854"/>
        <path fill="#139AD6" d="M72.731 6.238l-1.444 12.797c0 .284.103.427.31.427h1.443c.207 0 .413-.285.516-.57L75 6.38c0-.285-.103-.427-.31-.427h-1.65c-.103-.142-.206 0-.309.285"/>
        <path fill="#263B80" d="M13.858 1.694C13.015.564 11.448 0 9.28 0H3.254c-.362 0-.723.424-.844.847L0 19.345c0 .424.241.706.482.706h3.736l.964-6.919v.283c.12-.424.482-.848.843-.848h1.808c3.495 0 6.146-1.694 6.99-6.354V5.79c-.121 0-.121 0 0 0 .12-1.835-.121-2.965-.965-4.095"/>
        <path fill="#139AD6" d="M14.203 5.897v.432c-.816 4.886-3.38 6.467-6.76 6.467H5.694c-.35 0-.699.431-.816.862l-1.165 8.767c0 .288.116.575.466.575h3.03c.35 0 .7-.287.7-.719v-.143l.583-4.456v-.287a.71.71 0 0 1 .699-.719h.466c2.914 0 5.245-1.437 5.828-5.748.233-1.725.117-3.306-.583-4.312a1.302 1.302 0 0 0-.7-.719"/>
        <path fill="#232C65" d="M13.779 5.72c-.12 0-.238-.137-.358-.137-.119 0-.238 0-.357-.138-.477-.137-.954-.137-1.55-.137H6.867c-.12 0-.239 0-.358.137-.238.138-.358.413-.358.688l-.953 7.156v.275c.12-.413.477-.826.834-.826H7.82c3.456 0 6.078-1.65 6.912-6.192 0-.137 0-.275.12-.413-.239-.137-.358-.275-.596-.275-.358-.137-.358-.137-.477-.137"/>
    </g>
</svg>
