<svg xmlns="http://www.w3.org/2000/svg" width="580" height="257" viewBox="0 0 580 257">
    <defs>
        <filter id="a" width="103%" height="106.9%" x="-1.1%" y="-2.6%" filterUnits="objectBoundingBox">
            <feOffset dx="2" dy="2" in="SourceAlpha" result="shadowOffsetOuter1"/>
            <feGaussianBlur in="shadowOffsetOuter1" result="shadowBlurOuter1" stdDeviation="2.5"/>
            <feColorMatrix in="shadowBlurOuter1" result="shadowMatrixOuter1" values="0 0 0 0 0 0 0 0 0 0 0 0 0 0 0 0 0 0 0.05 0"/>
            <feMerge>
                <feMergeNode in="shadowMatrixOuter1"/>
                <feMergeNode in="SourceGraphic"/>
            </feMerge>
        </filter>
    </defs>
    <g fill="none" fill-rule="evenodd" filter="url(#a)" transform="translate(3 3)">
        <rect width="570" height="247" fill="#FFF" rx="4"/>
        <text fill="#333" font-family="OpenSans, Open Sans" font-size="20">
            <tspan x="30" y="86">Container 1</tspan>
        </text>
        <g fill="#F6F6F6" fill-rule="nonzero">
            <path d="M521 37c-1.654 0-3 1.346-3 3s1.346 3 3 3 3-1.346 3-3-1.346-3-3-3zM537 37c-1.654 0-3 1.346-3 3s1.346 3 3 3 3-1.346 3-3-1.346-3-3-3zM529 37c-1.654 0-3 1.346-3 3s1.346 3 3 3 3-1.346 3-3-1.346-3-3-3z"/>
        </g>
        <path fill="#F6F6F6" fill-rule="nonzero" stroke="#F6F6F6" stroke-width="2.5" d="M56.818 31.606L46.182 25.29a2.555 2.555 0 0 0-2.364 0l-10.636 6.316A2.698 2.698 0 0 0 32 33.71v12.58a2.709 2.709 0 0 0 1.182 2.105l10.636 6.316c.743.384 1.62.384 2.364 0l10.636-6.316A2.698 2.698 0 0 0 58 46.29V33.711a2.698 2.698 0 0 0-1.182-2.105z"/>
        <rect width="508" height="20" x="30" y="70" fill="#F6F6F6" rx="2"/>
        <rect width="510" height="107" x="30" y="115" fill="#F6F6F6" rx="2"/>
    </g>
</svg>
