<?xml version="1.0" encoding="UTF-8"?>
<svg width="17px" height="22px" viewBox="0 0 17 22" version="1.1" xmlns="http://www.w3.org/2000/svg" xmlns:xlink="http://www.w3.org/1999/xlink">
    <!-- Generator: Sketch 49.1 (51147) - http://www.bohemiancoding.com/sketch -->
    <title>technology</title>
    <desc>Created with Sketch.</desc>
    <defs></defs>
    <g id="Web-Panel" stroke="none" stroke-width="1" fill="none" fill-rule="evenodd">
        <g id="SVC-External" transform="translate(-171.000000, -549.000000)" fill="#29ABE2" fill-rule="nonzero">
            <g id="technology" transform="translate(171.000000, 549.000000)">
                <path d="M16.2894347,5.67973099 L16.2894347,8.70891228 C16.2894347,8.91793372 16.1197817,9.08754386 15.9108031,9.08754386 L15.1534971,9.08754386 L15.1534971,10.6021559 C15.1527251,11.0516335 14.886924,11.458269 14.4756998,11.6396725 L9.55327485,13.8017622 C9.28104094,13.9187524 9.1022963,14.1834386 9.09509162,14.4795595 L9.09509162,15.9941715 C10.7149435,16.4126004 11.6892047,18.064616 11.2708187,19.6844678 C10.8523899,21.3043197 9.20037427,22.2785809 7.58052242,21.8601949 C5.96067057,21.4417661 4.98640936,19.7897505 5.40479532,18.1698986 C5.68046004,17.1028772 6.51350097,16.2698363 7.58052242,15.9941715 L7.58052242,15.61554 C7.58013645,15.3148733 7.40182066,15.0430253 7.12615595,14.9226043 L2.20373099,12.7605146 C1.79593762,12.5825419 1.52936452,12.1830682 1.52215984,11.7381793 L1.52215984,10.0910526 C0.339263158,9.67262378 -0.280596491,8.37462378 0.137446394,7.1917271 C0.555489279,6.00883041 1.85387524,5.38897076 3.03677193,5.80701365 C4.21966862,6.2254425 4.83952827,7.5234425 4.42148538,8.70633918 C4.19277973,9.3534308 3.68386355,9.86234698 3.03677193,10.0910526 L3.03677193,10.9808733 C3.03715789,11.28154 3.21547368,11.5533879 3.4911384,11.673809 L7.5805653,13.4685887 L7.5805653,4.54379337 L5.68732164,4.54379337 L8.33778558,0 L10.9883353,4.54379337 L9.09509162,4.54379337 L9.09509162,12.3326082 L13.1845185,10.5378285 C13.4601832,10.4174074 13.638499,10.1455595 13.638885,9.84489279 L13.638885,9.08758674 L12.8815789,9.08758674 C12.6725575,9.08758674 12.5029474,8.91793372 12.5029474,8.70895517 L12.5029474,5.67977388 C12.5029474,5.47075244 12.6726004,5.3011423 12.8815789,5.3011423 L15.9107602,5.3011423 C16.1197817,5.30109942 16.2894347,5.47070955 16.2894347,5.67973099 Z" id="Shape"></path>
            </g>
        </g>
    </g>
</svg>