<?xml version="1.0" encoding="UTF-8"?>
<svg width="25px" height="23px" viewBox="0 0 25 23" version="1.1" xmlns="http://www.w3.org/2000/svg" xmlns:xlink="http://www.w3.org/1999/xlink">
    <!-- Generator: sketchtool 46.2 (44496) - http://www.bohemiancoding.com/sketch -->
    <title>DD127F13-FDC2-400D-9EC4-9230BD0A270E</title>
    <desc>Created with sketchtool.</desc>
    <defs>
        <linearGradient x1="0%" y1="0%" x2="100%" y2="100%" id="linearGradient-1">
            <stop stop-color="#53D5F3" offset="0%"></stop>
            <stop stop-color="#29ABE2" offset="100%"></stop>
        </linearGradient>
    </defs>
    <g id="ЛК-Panel" stroke="none" stroke-width="1" fill="none" fill-rule="evenodd">
        <g id="UI-Kit" transform="translate(-35.000000, -2199.000000)" fill-rule="nonzero" fill="url(#linearGradient-1)">
            <path d="M35.7148693,2207.17184 L46.3211193,2211.85749 C47.2586193,2212.29205 47.6625,2212.29205 48.6781454,2211.85749 L59.2843954,2207.17184 C60.0656454,2206.81407 60.0914216,2205.29236 59.2843954,2204.8578 L48.6781454,2199.35448 C47.8453023,2198.86926 47.2586193,2198.89459 46.3210784,2199.35448 L35.7148693,2204.8578 C34.9078023,2205.36912 34.8820261,2206.73728 35.7148693,2207.17184 Z M35.7148693,2212.08013 L46.3211193,2216.76578 C47.2586193,2217.20031 47.6625,2217.20031 48.6781454,2216.76578 L59.2843954,2212.08013 C59.8085784,2211.84059 60,2210.71277 60,2210.10543 C59.3179739,2210.44096 58.3523284,2210.91928 58.3335784,2210.92313 L47.5,2215.83142 L36.6663807,2210.92313 C36.7038807,2210.94541 35.7078023,2210.50314 35,2210.10543 C35,2210.69892 35.1515523,2211.78688 35.7148693,2212.08013 Z M47.5,2220.73972 L36.6663807,2215.83142 C36.7038807,2215.85366 35.7078023,2215.41147 35,2215.01376 C35,2215.60726 35.1515523,2216.69517 35.7148693,2216.98843 L46.3211193,2221.67408 C47.2586193,2222.10864 47.6625,2222.10864 48.6781454,2221.67408 L59.2843954,2216.98843 C59.8085784,2216.74888 60,2215.62103 60,2215.01376 C59.3179739,2215.34925 58.3523284,2215.82757 58.3335784,2215.83142 L47.5,2220.73972 Z" id="Shape"></path>
        </g>
    </g>
</svg>