<svg xmlns="http://www.w3.org/2000/svg" width="18" height="15" viewBox="0 0 18 15">
    <path fill="#03B5AA" fill-rule="nonzero" d="M5.109 6.156a.692.692 0 0 0-.938-.003.598.598 0 0 0-.003.882l3.14 2.976a.693.693 0 0 0 .938.003l9.56-8.947a.6.6 0 0 0 .003-.882.692.692 0 0 0-.938-.004l-3.379 3.16C12.054 1.675 9.892.7 7.594.7c-1.073 0-2.11.207-3.08.612a7.57 7.57 0 0 0-2.475 1.664A7.053 7.053 0 0 0 .454 5.413 6.733 6.733 0 0 0 .02 8.367c.261 3.52 3.28 6.363 7.02 6.616.183.014.37.017.554.017 1.74 0 3.42-.554 4.773-1.585 1.478-1.12 2.449-2.709 2.74-4.466.058-.36.088-.73.088-1.1 0-.343-.298-.623-.662-.623-.364 0-.662.28-.662.622 0 .305-.026.61-.074.91-.492 3.01-3.42 5.197-6.662 4.98-3.085-.208-5.578-2.554-5.795-5.46-.125-1.661.467-3.243 1.666-4.454C4.19 2.631 5.863 1.946 7.594 1.946c1.942 0 3.766.847 4.953 2.28L7.782 8.689 5.109 6.156z"/>
</svg>
