<?xml version="1.0" encoding="UTF-8"?>
<svg width="24px" height="20px" viewBox="0 0 24 20" version="1.1" xmlns="http://www.w3.org/2000/svg" xmlns:xlink="http://www.w3.org/1999/xlink">
    <!-- Generator: Sketch 48.2 (47327) - http://www.bohemiancoding.com/sketch -->
    <title>Shape</title>
    <desc>Created with Sketch.</desc>
    <defs></defs>
    <g id="Modal-Window-Sol-3-Step-Success" stroke="none" stroke-width="1" fill="none" fill-rule="evenodd" transform="translate(-185.000000, -200.000000)">
        <g id="Window" transform="translate(135.000000, 30.000000)" fill="#03B5AA" fill-rule="nonzero">
            <g id="Внутренее" transform="translate(50.000000, 170.000000)">
                <g id="Commands">
                    <path d="M6.81172902,8.20863428 C6.46855216,7.88109634 5.90966414,7.88109634 5.56158476,8.20402107 C5.21350538,8.5269458 5.21350538,9.05285178 5.55668224,9.38038972 L9.74343985,13.3477506 C9.91012575,13.5045998 10.1307394,13.5922508 10.3660607,13.5922508 C10.6062845,13.5922508 10.8268982,13.5045998 10.9935841,13.3523638 L23.740153,1.42260182 C24.0833298,1.09967709 24.0882323,0.573771108 23.7450555,0.246233171 C23.4018786,-0.0813047656 22.8429906,-0.0813047656 22.4949112,0.241619961 L17.9894894,4.45348103 C16.0726015,2.23452684 13.189916,0.933601517 10.1258369,0.933601517 C8.69429919,0.933601517 7.31178672,1.21039414 6.01751972,1.75013975 C4.76737547,2.27604574 3.65450196,3.01877261 2.7181194,3.96909394 C1.78173684,4.91480207 1.0708705,6.00813293 0.605130486,7.21679405 C0.119780364,8.47620048 -0.076320695,9.80019186 0.0266323611,11.1564757 C0.374711742,15.8481107 4.39968599,19.6401696 9.38555542,19.9769339 C9.63068174,19.9953868 9.88071059,20 10.1258369,20 C12.4447319,20 14.6851865,19.2618863 16.4893163,17.8871496 C18.4601319,16.3924695 19.7543989,14.2750059 20.1416985,11.9314951 C20.2201389,11.4517212 20.2593592,10.9581077 20.2593592,10.4644942 C20.2593592,10.0077863 19.8622545,9.63411629 19.3769044,9.63411629 C18.8915543,9.63411629 18.4944496,10.0077863 18.4944496,10.4644942 C18.4944496,10.8704567 18.4601319,11.2764192 18.3963991,11.6777685 C17.7394605,15.6912615 13.8370495,18.6068105 9.51302111,18.3161782 C5.39980139,18.0393856 2.07588843,14.911629 1.78663937,11.0365322 C1.61995347,8.82219126 2.40926023,6.71395412 4.00748387,5.09933049 C5.58609739,3.50777291 7.81674694,2.59435725 10.1258369,2.59435725 C12.7143709,2.59435725 15.146024,3.72459379 16.7295401,5.63446289 L10.3758658,11.5855043 L6.81172902,8.20863428 Z" id="Shape"></path>
                </g>
            </g>
        </g>
    </g>
</svg>