<svg xmlns="http://www.w3.org/2000/svg" width="23" height="22" viewBox="0 0 23 22">
    <g fill="none" fill-rule="evenodd" transform="translate(1 1)">
        <ellipse cx="10.025" cy="10" stroke="#03B5AA" stroke-width="2" rx="10.025" ry="10"/>
        <path fill="#03B5AA" fill-rule="nonzero" d="M20.05 10c0-5.514-4.497-10-10.025-10C4.497 0 0 4.486 0 10a9.964 9.964 0 0 0 3.254 7.367l-.01.008.326.273c.02.018.044.033.065.05a10.072 10.072 0 0 0 .712.537c.195.133.395.26.599.38.044.027.09.052.134.078.223.127.452.246.685.356l.052.023a9.953 9.953 0 0 0 2.425.766l.067.012c.264.045.53.082.8.106l.1.008c.269.022.54.036.816.036.273 0 .543-.014.81-.036l.102-.007c.268-.025.532-.06.794-.105l.068-.012a9.952 9.952 0 0 0 2.39-.747l.084-.038a10.085 10.085 0 0 0 1.396-.796c.068-.046.134-.094.2-.142.16-.115.318-.234.47-.358.034-.027.07-.05.104-.079l.333-.277-.01-.009A9.963 9.963 0 0 0 20.05 10zM.73 10C.73 4.887 4.9.727 10.024.727c5.126 0 9.296 4.16 9.296 9.273a9.24 9.24 0 0 1-3.131 6.932 2.733 2.733 0 0 0-.326-.195l-3.086-1.54a.806.806 0 0 1-.45-.724v-1.076c.072-.088.148-.187.226-.297.4-.563.72-1.189.953-1.863a1.32 1.32 0 0 0 .76-1.196V8.752c0-.315-.116-.62-.323-.861V6.194c.019-.189.086-1.254-.686-2.133-.672-.765-1.76-1.152-3.233-1.152s-2.56.387-3.232 1.152c-.773.879-.706 1.944-.687 2.132v1.698c-.207.24-.323.546-.323.861v1.29c0 .4.18.773.488 1.025A6.826 6.826 0 0 0 7.4 13.39v1.053a.81.81 0 0 1-.424.712l-2.882 1.568c-.092.05-.183.108-.274.173A9.24 9.24 0 0 1 .729 10zm14.748 7.503a9.323 9.323 0 0 1-.389.267 9.17 9.17 0 0 1-.708.419l-.118.06c-.41.21-.836.39-1.272.537l-.046.015c-.229.076-.46.143-.694.201h-.003a9.35 9.35 0 0 1-.716.147l-.02.003a9.348 9.348 0 0 1-.683.084l-.122.009a9.062 9.062 0 0 1-.682.028c-.231 0-.461-.012-.69-.029l-.12-.009a9.45 9.45 0 0 1-.72-.09 9.28 9.28 0 0 1-1.417-.353l-.043-.015a9.442 9.442 0 0 1-.68-.259l-.004-.002c-.21-.09-.417-.19-.621-.297l-.08-.04a9.374 9.374 0 0 1-.707-.42 9.266 9.266 0 0 1-.488-.34l-.048-.038.035-.02 2.882-1.568c.496-.27.804-.787.804-1.35v-1.31l-.084-.101a6.066 6.066 0 0 1-1.094-2.26l-.033-.145-.125-.08a.602.602 0 0 1-.28-.506V8.75c0-.168.072-.326.203-.444l.12-.108V6.173l-.003-.048c-.001-.008-.109-.883.509-1.585.527-.6 1.43-.904 2.684-.904 1.249 0 2.15.302 2.678.897.617.695.516 1.586.515 1.593L13.215 8.2l.12.109c.131.117.203.275.203.444v1.29c0 .259-.177.494-.43.572l-.182.056-.058.18a6.72 6.72 0 0 1-.91 1.83 4.467 4.467 0 0 1-.268.345l-.09.103v1.345c0 .586.326 1.113.852 1.375l3.086 1.54.059.03-.119.085z"/>
    </g>
</svg>
