<svg xmlns="http://www.w3.org/2000/svg" width="22" height="22" viewBox="0 0 22 22">
    <g fill="none" fill-rule="evenodd" transform="translate(1 1)">
        <circle cx="10" cy="10" r="10" stroke="#FE4A49" stroke-width="2"/>
        <path fill="#FE4A49" fill-rule="nonzero" d="M20 10c0-5.514-4.486-10-10-10S0 4.486 0 10a9.975 9.975 0 0 0 3.246 7.367l-.01.008.325.273c.02.018.044.033.065.05a10.05 10.05 0 0 0 .71.537c.195.133.394.26.597.38l.134.078c.223.127.45.246.684.356l.052.023a9.91 9.91 0 0 0 2.418.766l.067.012c.263.045.53.082.799.106l.098.008c.269.022.54.036.815.036.272 0 .541-.014.808-.036l.101-.007c.268-.025.532-.06.792-.105l.068-.012a9.91 9.91 0 0 0 2.385-.747l.083-.038a10.05 10.05 0 0 0 1.393-.796c.067-.046.133-.094.2-.142.16-.115.316-.234.469-.358.033-.027.07-.05.103-.079l.333-.277-.01-.009A9.974 9.974 0 0 0 20 10zM.727 10C.727 4.887 4.887.727 10 .727c5.113 0 9.273 4.16 9.273 9.273a9.25 9.25 0 0 1-3.124 6.932 2.725 2.725 0 0 0-.324-.195l-3.08-1.54a.806.806 0 0 1-.447-.724v-1.076c.071-.088.146-.187.224-.297a7.41 7.41 0 0 0 .951-1.863 1.32 1.32 0 0 0 .759-1.196V8.752c0-.315-.116-.62-.323-.861V6.194c.019-.189.086-1.254-.685-2.133C12.554 3.296 11.47 2.91 10 2.91c-1.47 0-2.554.387-3.224 1.152-.77.879-.704 1.944-.685 2.132v1.698c-.207.24-.323.546-.323.861v1.29c0 .4.18.773.488 1.025A6.833 6.833 0 0 0 7.38 13.39v1.053c0 .296-.161.569-.422.712l-2.875 1.568c-.092.05-.183.108-.274.173A9.25 9.25 0 0 1 .727 10zm14.713 7.503a9.298 9.298 0 0 1-.388.267 9.142 9.142 0 0 1-.706.419l-.12.06c-.409.21-.832.39-1.267.537l-.047.015a9.3 9.3 0 0 1-.692.201h-.002a9.305 9.305 0 0 1-.714.147c-.007 0-.013.002-.02.003a9.302 9.302 0 0 1-.682.084l-.121.009a9.017 9.017 0 0 1-.681.028c-.23 0-.46-.012-.69-.029l-.118-.009c-.23-.02-.46-.047-.687-.084l-.03-.006a9.238 9.238 0 0 1-1.415-.353l-.043-.015a9.403 9.403 0 0 1-.677-.259l-.005-.002c-.21-.09-.416-.19-.62-.297l-.08-.04a9.345 9.345 0 0 1-.704-.42 9.242 9.242 0 0 1-.487-.34l-.048-.038.035-.02 2.875-1.568c.494-.27.802-.787.802-1.35v-1.31l-.084-.101a6.072 6.072 0 0 1-1.092-2.26l-.033-.145-.124-.08a.603.603 0 0 1-.28-.506V8.75c0-.168.072-.326.203-.444l.12-.108V6.173l-.003-.048c-.001-.008-.108-.883.508-1.585.525-.6 1.426-.904 2.677-.904 1.246 0 2.144.302 2.671.897.616.695.515 1.586.514 1.593L13.182 8.2l.12.109c.13.117.202.275.202.444v1.29c0 .259-.176.494-.43.572l-.18.056-.058.18a6.727 6.727 0 0 1-.908 1.83 4.466 4.466 0 0 1-.267.345l-.09.103v1.345c0 .586.325 1.113.85 1.375l3.079 1.54.058.03c-.04.029-.08.056-.118.085z"/>
    </g>
</svg>
