<svg xmlns="http://www.w3.org/2000/svg" width="22" height="22" viewBox="0 0 22 22">
    <defs>
        <linearGradient id="a" x1="0%" y1="0%" y2="100%">
            <stop offset="0%" stop-color="#53D5F3"/>
            <stop offset="100%" stop-color="#29ABE2"/>
        </linearGradient>
    </defs>
    <g fill="none" fill-rule="evenodd">
        <path fill="url(#a)" d="M.014 6.774a173.07 173.07 0 0 0-.002 4.15c-.02 1.366-.01 2.758.001 4.148.01 1.393.022 2.783 0 4.15 3.085 3.704 18.156 3.704 21.24 0-.021-1.367-.01-2.758 0-4.15.01-1.39.023-2.782.002-4.148.021-1.368.009-2.759-.001-4.15-.01-1.391-.022-2.783 0-4.15C14.13-2.355.808.984.014 2.624c.02 1.367.01 2.759 0 4.15z"/>
        <path fill="#29ABE2" fill-rule="nonzero" d="M.014 2.624c.02 1.367.01 2.759 0 4.15a173.07 173.07 0 0 0-.002 4.15c-.02 1.366-.01 2.758.001 4.148.01 1.393.022 2.783 0 4.15 3.085 3.704 18.156 3.704 21.24 0-.021-1.367-.01-2.758 0-4.15.01-1.39.023-2.782.002-4.148.021-1.368.009-2.759-.001-4.15-.01-1.391-.022-2.783 0-4.15C14.13-2.355.808.984.014 2.624zm19.823 1.634c.002.52.006.853.01 1.375.008 1.307-.008 2.971-.026 4.254.02 1.285.009 2.59-.001 3.899-.01 1.307-.02 3.158 0 4.442-2.339 3.046-15.92 3.224-18.39.006.017-1.284.008-3.141-.002-4.448-.009-1.308-.018-2.613 0-3.899-.018-1.284.018-2.948.027-4.254.003-.522.008-.854.01-1.375C3.07 5.41 6.58 6.018 10.65 6.018s7.581-.609 9.187-1.76z"/>
    </g>
</svg>
