<svg xmlns="http://www.w3.org/2000/svg" width="22" height="20" viewBox="0 0 22 20">
    <path fill="#FE4A49" fill-rule="nonzero" d="M20.82 17.19L12.046.94c-.303-.561-.871-.94-1.52-.94-.65 0-1.218.379-1.522.94L.233 17.19a1.97 1.97 0 0 0-.233.935C0 19.16.786 20 1.754 20h17.544c.969 0 1.755-.84 1.755-1.875 0-.34-.085-.66-.234-.935zM2.004 18l8.52-16h.002l.001.002 8.52 15.996L2.005 18zm8.521-4c-.83 0-1.503.672-1.503 1.5 0 .829.672 1.5 1.503 1.5.831 0 1.504-.672 1.504-1.5s-.673-1.5-1.504-1.5zM9.023 8.333c0 .076.007.152.02.224l.741 3.888c.061.316.37.555.742.555s.682-.24.742-.555l.74-3.888c.015-.072.022-.148.022-.224 0-.736-.673-1.333-1.504-1.333-.83 0-1.503.597-1.503 1.333z"/>
</svg>
