<?xml version="1.0" encoding="UTF-8"?>
<svg width="487px" height="700px" viewBox="0 0 487 700" version="1.1" xmlns="http://www.w3.org/2000/svg" xmlns:xlink="http://www.w3.org/1999/xlink">
    <!-- Generator: Sketch 49 (51002) - http://www.bohemiancoding.com/sketch -->
    <title>pic</title>
    <desc>Created with Sketch.</desc>
    <defs>
        <linearGradient x1="100%" y1="100%" x2="0%" y2="0%" id="linearGradient-1">
            <stop stop-color="#4285F4" offset="0%"></stop>
            <stop stop-color="#29ABE2" offset="100%"></stop>
        </linearGradient>
        <linearGradient x1="50.0011255%" y1="100%" x2="50.0011255%" y2="0%" id="linearGradient-2">
            <stop stop-color="#808080" stop-opacity="0.25" offset="0%"></stop>
            <stop stop-color="#808080" stop-opacity="0.12" offset="54%"></stop>
            <stop stop-color="#808080" stop-opacity="0.1" offset="100%"></stop>
        </linearGradient>
        <linearGradient x1="59397%" y1="62669%" x2="59397%" y2="45202%" id="linearGradient-3">
            <stop stop-color="#808080" stop-opacity="0.25" offset="0%"></stop>
            <stop stop-color="#808080" stop-opacity="0.12" offset="54%"></stop>
            <stop stop-color="#808080" stop-opacity="0.1" offset="100%"></stop>
        </linearGradient>
        <linearGradient x1="73807%" y1="41472%" x2="73807%" y2="39425%" id="linearGradient-4">
            <stop stop-color="#808080" stop-opacity="0.25" offset="0%"></stop>
            <stop stop-color="#808080" stop-opacity="0.12" offset="54%"></stop>
            <stop stop-color="#808080" stop-opacity="0.1" offset="100%"></stop>
        </linearGradient>
        <linearGradient x1="78673%" y1="41526%" x2="78673%" y2="39372%" id="linearGradient-5">
            <stop stop-color="#808080" stop-opacity="0.25" offset="0%"></stop>
            <stop stop-color="#808080" stop-opacity="0.12" offset="54%"></stop>
            <stop stop-color="#808080" stop-opacity="0.1" offset="100%"></stop>
        </linearGradient>
        <linearGradient x1="74605%" y1="36740%" x2="74605%" y2="7708%" id="linearGradient-6">
            <stop stop-color="#808080" stop-opacity="0.25" offset="0%"></stop>
            <stop stop-color="#808080" stop-opacity="0.12" offset="54%"></stop>
            <stop stop-color="#808080" stop-opacity="0.1" offset="100%"></stop>
        </linearGradient>
        <linearGradient x1="11636%" y1="37139%" x2="11636%" y2="34746%" id="linearGradient-7">
            <stop stop-color="#808080" stop-opacity="0.25" offset="0%"></stop>
            <stop stop-color="#808080" stop-opacity="0.12" offset="54%"></stop>
            <stop stop-color="#808080" stop-opacity="0.1" offset="100%"></stop>
        </linearGradient>
        <linearGradient x1="16900%" y1="37139%" x2="16900%" y2="34746%" id="linearGradient-8">
            <stop stop-color="#808080" stop-opacity="0.25" offset="0%"></stop>
            <stop stop-color="#808080" stop-opacity="0.12" offset="54%"></stop>
            <stop stop-color="#808080" stop-opacity="0.1" offset="100%"></stop>
        </linearGradient>
        <linearGradient x1="22164%" y1="37139%" x2="22164%" y2="34746%" id="linearGradient-9">
            <stop stop-color="#808080" stop-opacity="0.25" offset="0%"></stop>
            <stop stop-color="#808080" stop-opacity="0.12" offset="54%"></stop>
            <stop stop-color="#808080" stop-opacity="0.1" offset="100%"></stop>
        </linearGradient>
        <linearGradient x1="27428%" y1="37139%" x2="27428%" y2="34746%" id="linearGradient-10">
            <stop stop-color="#808080" stop-opacity="0.25" offset="0%"></stop>
            <stop stop-color="#808080" stop-opacity="0.12" offset="54%"></stop>
            <stop stop-color="#808080" stop-opacity="0.1" offset="100%"></stop>
        </linearGradient>
        <linearGradient x1="39820%" y1="24081%" x2="39820%" y2="19349%" id="linearGradient-11">
            <stop stop-color="#808080" stop-opacity="0.25" offset="0%"></stop>
            <stop stop-color="#808080" stop-opacity="0.12" offset="54%"></stop>
            <stop stop-color="#808080" stop-opacity="0.1" offset="100%"></stop>
        </linearGradient>
        <linearGradient x1="81620%" y1="15741%" x2="81620%" y2="12689%" id="linearGradient-12">
            <stop stop-color="#808080" stop-opacity="0.25" offset="0%"></stop>
            <stop stop-color="#808080" stop-opacity="0.12" offset="54%"></stop>
            <stop stop-color="#808080" stop-opacity="0.1" offset="100%"></stop>
        </linearGradient>
        <linearGradient x1="13838%" y1="14368%" x2="13838%" y2="968%" id="linearGradient-13">
            <stop stop-color="#808080" stop-opacity="0.25" offset="0%"></stop>
            <stop stop-color="#808080" stop-opacity="0.12" offset="54%"></stop>
            <stop stop-color="#808080" stop-opacity="0.1" offset="100%"></stop>
        </linearGradient>
    </defs>
    <g id="LSR" stroke="none" stroke-width="1" fill="none" fill-rule="evenodd">
        <g id="Log-In" transform="translate(-234.000000, -50.000000)">
            <g id="pic" transform="translate(235.000000, 50.000000)">
                <rect id="Rectangle" fill="url(#linearGradient-1)" x="0" y="0" width="485" height="700"></rect>
                <g id="Abstractnaya-hren'" opacity="0.52" transform="translate(0.000000, 289.000000)" stroke="#4A4A4A">
                    <g id="Group" opacity="0.31" transform="translate(0.000000, 37.000000)">
                        <path d="M0.149294643,223.765453 L0.149294643,149.137349" id="Shape"></path>
                        <polyline id="Shape" points="69.3760662 261.072076 138.602838 223.765453 138.602838 149.137349 69.3760662 111.830726 0.149294643 149.137349 0.149294643 223.765453"></polyline>
                        <polygon id="Shape" points="277.056381 149.137349 207.829609 111.830726 138.602838 149.137349 138.602838 223.765453 207.829609 261.072076 277.056381 223.765453"></polygon>
                        <polygon id="Shape" points="415.509924 149.137349 346.283152 111.830726 277.056381 149.137349 277.056381 223.765453 346.283152 261.072076 415.509924 223.765453"></polygon>
                        <path d="M0.149294643,149.642497 L69.3760662,112.321016" id="Shape"></path>
                        <polyline id="Shape" points="69.3760662 112.321016 138.602838 149.642497 207.829609 112.321016 207.829609 37.7077697 138.602838 0.386289209"></polyline>
                        <polygon id="Shape" points="346.283152 37.7077697 277.056381 0.386289209 207.829609 37.7077697 207.829609 112.321016 277.056381 149.642497 346.283152 112.321016"></polygon>
                        <polygon id="Shape" points="484.736695 37.7077697 415.509924 0.386289209 346.283152 37.7077697 346.283152 112.321016 415.509924 149.642497 484.736695 112.321016"></polygon>
                        <polyline id="Shape" points="0.149294643 373.467379 69.3760662 336.145899 69.3760662 261.532652"></polyline>
                        <polygon id="Shape" points="207.829609 261.532652 138.602838 224.211171 69.3760662 261.532652 69.3760662 336.145899 138.602838 373.467379 207.829609 336.145899"></polygon>
                        <polygon id="Shape" points="346.283152 261.532652 277.056381 224.211171 207.829609 261.532652 207.829609 336.145899 277.056381 373.467379 346.283152 336.145899"></polygon>
                        <polygon id="Shape" points="484.736695 261.532652 415.509924 224.211171 346.283152 261.532652 346.283152 336.145899 415.509924 373.467379 484.736695 336.145899"></polygon>
                    </g>
                    <g id="Group" opacity="0.31">
                        <polyline id="Shape" points="0.149294643 112.367891 69.3760662 149.689371 138.602838 112.367891 138.602838 37.7397869"></polyline>
                        <polygon id="Shape" points="277.056381 37.7397869 207.829609 0.433163645 138.602838 37.7397869 138.602838 112.367891 207.829609 149.689371 277.056381 112.367891"></polygon>
                        <polygon id="Shape" points="415.509924 37.7397869 346.283152 0.433163645 277.056381 37.7397869 277.056381 112.367891 346.283152 149.689371 415.509924 112.367891"></polygon>
                        <polyline id="Shape" points="69.3760662 373.499396 138.602838 336.192773 138.602838 261.564669 69.3760662 224.258046 0.149294643 261.564669"></polyline>
                        <polygon id="Shape" points="277.056381 261.564669 207.829609 224.258046 138.602838 261.564669 138.602838 336.192773 207.829609 373.499396 277.056381 336.192773"></polygon>
                        <polygon id="Shape" points="415.509924 261.564669 346.283152 224.258046 277.056381 261.564669 277.056381 336.192773 346.283152 373.499396 415.509924 336.192773"></polygon>
                        <polyline id="Shape" points="0.149294643 262.069817 69.3760662 224.763193 69.3760662 150.13509 0.149294643 112.813609"></polyline>
                        <polygon id="Shape" points="207.829609 150.13509 138.602838 112.813609 69.3760662 150.13509 69.3760662 224.763193 138.602838 262.069817 207.829609 224.763193"></polygon>
                        <polygon id="Shape" points="346.283152 150.13509 277.056381 112.813609 207.829609 150.13509 207.829609 224.763193 277.056381 262.069817 346.283152 224.763193"></polygon>
                        <polygon id="Shape" points="484.736695 150.13509 415.509924 112.813609 346.283152 150.13509 346.283152 224.763193 415.509924 262.069817 484.736695 224.763193"></polygon>
                    </g>
                </g>
                <g id="undraw_Container_ship_urt4" transform="translate(59.000000, 189.000000)" fill-rule="nonzero">
                    <g id="Group" opacity="0.5" transform="translate(62.027867, 99.892819)" fill="url(#linearGradient-2)">
                        <polygon id="Shape" points="182.186495 0.308681672 182.186495 0.137191854 175.931404 0.137191854 175.931404 0.308681672 170.02358 0.308681672 170.02358 0.137191854 163.768489 0.137191854 163.768489 0.308681672 157.856377 0.308681672 157.856377 0.137191854 151.601286 0.137191854 151.601286 0.308681672 143.086817 0.308681672 134.572347 0.308681672 134.572347 0.137191854 128.317256 0.137191854 128.317256 0.308681672 122.405145 0.308681672 122.405145 0.137191854 116.150054 0.137191854 116.150054 0.308681672 110.242229 0.308681672 110.242229 0.137191854 103.987138 0.137191854 103.987138 0.308681672 95.4726688 0.308681672 86.9581994 0.308681672 86.9581994 0.137191854 80.698821 0.137191854 80.698821 0.308681672 74.7909968 0.308681672 74.7909968 0.137191854 68.5359057 0.137191854 68.5359057 0.308681672 62.6280815 0.308681672 62.6280815 0.137191854 56.3729904 0.137191854 56.3729904 0.308681672 47.8585209 0.308681672 47.8585209 29.1575563 47.5069668 29.1575563 39.3397642 29.1575563 39.3397642 28.9860665 33.0846731 28.9860665 33.0846731 29.1575563 27.1768489 29.1575563 27.1768489 28.9860665 20.9217578 28.9860665 20.9217578 29.1575563 15.0139335 29.1575563 15.0139335 28.9860665 8.75884244 28.9860665 8.75884244 29.1575563 0.240085745 29.1575563 0.240085745 58.0064309 47.5069668 58.0064309 47.8585209 58.0064309 95.1254019 58.0064309 95.1254019 29.1575563 95.4726688 29.1575563 95.4726688 58.0064309 143.086817 58.0064309 190.700965 58.0064309 190.700965 29.1575563 190.700965 0.308681672"></polygon>
                    </g>
                    <rect id="Rectangle-path" fill="#F55F44" x="110.653805" y="100.66881" width="46.846731" height="28.3815648"></rect>
                    <rect id="Rectangle-path" fill="#4D8AF0" x="157.500536" y="100.66881" width="46.846731" height="28.3815648"></rect>
                    <rect id="Rectangle-path" fill="#3AD29F" x="204.347267" y="100.66881" width="46.846731" height="28.3815648"></rect>
                    <rect id="Rectangle-path" fill="#4D8AF0" x="110.310825" y="129.050375" width="46.846731" height="28.3815648"></rect>
                    <rect id="Rectangle-path" fill="#F55F44" x="63.807074" y="129.050375" width="46.846731" height="28.3815648"></rect>
                    <rect id="Rectangle-path" fill="#3AD29F" x="157.500536" y="129.050375" width="46.846731" height="28.3815648"></rect>
                    <rect id="Rectangle-path" fill="#FDD835" x="204.347267" y="129.050375" width="46.846731" height="28.3815648"></rect>
                    <g id="Group" opacity="0.1" transform="translate(118.619507, 100.321543)" fill="#000000">
                        <rect id="Rectangle-path" x="0.411575563" y="0.175777063" width="6.15648446" height="28.3815648"></rect>
                        <rect id="Rectangle-path" x="12.3815648" y="0.175777063" width="6.15648446" height="28.3815648"></rect>
                        <rect id="Rectangle-path" x="24.3472669" y="0.175777063" width="6.15648446" height="28.3815648"></rect>
                    </g>
                    <g id="Group" opacity="0.1" transform="translate(165.779207, 100.321543)" fill="#000000">
                        <rect id="Rectangle-path" x="0.0986066452" y="0.175777063" width="6.15648446" height="28.3815648"></rect>
                        <rect id="Rectangle-path" x="12.0643087" y="0.175777063" width="6.15648446" height="28.3815648"></rect>
                        <rect id="Rectangle-path" x="24.034298" y="0.175777063" width="6.15648446" height="28.3815648"></rect>
                    </g>
                    <g id="Group" opacity="0.1" transform="translate(212.510182, 100.321543)" fill="#000000">
                        <rect id="Rectangle-path" x="0.214362272" y="0.175777063" width="6.15648446" height="28.3815648"></rect>
                        <rect id="Rectangle-path" x="12.1800643" y="0.175777063" width="6.15648446" height="28.3815648"></rect>
                        <rect id="Rectangle-path" x="24.1500536" y="0.175777063" width="6.15648446" height="28.3815648"></rect>
                    </g>
                    <g id="Group" opacity="0.1" transform="translate(118.619507, 128.617363)" fill="#000000">
                        <rect id="Rectangle-path" x="0.411575563" y="0.261521972" width="6.15648446" height="28.3815648"></rect>
                        <rect id="Rectangle-path" x="12.3815648" y="0.261521972" width="6.15648446" height="28.3815648"></rect>
                        <rect id="Rectangle-path" x="24.3472669" y="0.261521972" width="6.15648446" height="28.3815648"></rect>
                    </g>
                    <g id="Group" opacity="0.1" transform="translate(71.888532, 128.617363)" fill="#000000">
                        <rect id="Rectangle-path" x="0.295819936" y="0.261521972" width="6.15648446" height="28.3815648"></rect>
                        <rect id="Rectangle-path" x="12.2658092" y="0.261521972" width="6.15648446" height="28.3815648"></rect>
                        <rect id="Rectangle-path" x="24.2315113" y="0.261521972" width="6.15648446" height="28.3815648"></rect>
                    </g>
                    <g id="Group" opacity="0.1" transform="translate(165.779207, 128.617363)" fill="#000000">
                        <rect id="Rectangle-path" x="0.0986066452" y="0.261521972" width="6.15648446" height="28.3815648"></rect>
                        <rect id="Rectangle-path" x="12.0643087" y="0.261521972" width="6.15648446" height="28.3815648"></rect>
                        <rect id="Rectangle-path" x="24.034298" y="0.261521972" width="6.15648446" height="28.3815648"></rect>
                    </g>
                    <g id="Group" opacity="0.1" transform="translate(212.510182, 128.617363)" fill="#000000">
                        <rect id="Rectangle-path" x="0.214362272" y="0.261521972" width="6.15648446" height="28.3815648"></rect>
                        <rect id="Rectangle-path" x="12.1800643" y="0.261521972" width="6.15648446" height="28.3815648"></rect>
                        <rect id="Rectangle-path" x="24.1500536" y="0.261521972" width="6.15648446" height="28.3815648"></rect>
                    </g>
                    <g id="Group" opacity="0.5" transform="translate(12.295820, 139.764202)" fill="url(#linearGradient-3)">
                        <path d="M99.8327974,0.0471596999 L1.11897106,0.0471596999 C1.11897106,0.0471596999 -7.63558414,39.1596999 37.1747053,66.0707395 L37.1747053,74.9239014 L321.419078,74.9239014 L321.419078,67.562701 C321.419078,67.562701 346.623794,60.9217578 334.019293,14.4437299 L126.439443,15.5498392 L99.8327974,0.0471596999 Z" id="Shape"></path>
                    </g>
                    <path d="M113.732047,143.069668 L17.3033226,143.069668 C17.3033226,143.069668 8.7545552,179.314041 52.5230439,204.278671 L52.5230439,212.484459 L330.182208,212.484459 L330.182208,205.624866 C330.182208,205.624866 354.799571,199.489818 342.495177,156.403001 L139.708467,157.43194 L113.732047,143.069668 Z" id="Shape" stroke="#5A6D8C" fill="#677B9D"></path>
                    <g id="Group" opacity="0.5" transform="translate(287.108253, 169.346195)" fill="url(#linearGradient-4)">
                        <rect id="Rectangle-path" x="0.158628081" y="0.107181136" width="26.3279743" height="8.77599143" rx="4.38799571"></rect>
                    </g>
                    <rect id="Rectangle-path" fill="#FFFFFF" x="288.120043" y="169.740622" width="24.6216506" height="8.20578778" rx="4.10289389"></rect>
                    <g id="Group" opacity="0.5" transform="translate(316.261522, 168.917471)" fill="url(#linearGradient-5)">
                        <rect id="Rectangle-path" x="0.411575563" y="0.308681672" width="9.23043944" height="9.23043944" rx="4.61521972"></rect>
                    </g>
                    <rect id="Rectangle-path" fill="#FFFFFF" x="317.187567" y="169.740622" width="8.20578778" height="8.20578778" rx="4.10289389"></rect>
                    <g id="Group" opacity="0.5" transform="translate(261.384780, 33.440514)" fill="url(#linearGradient-6)">
                        <polygon id="Shape" points="77.8092176 87.3397642 77.8092176 78.9239014 55.6956056 78.9239014 55.6956056 36.4973205 24.5230439 36.4973205 24.5230439 10.5551983 29.5948553 10.5551983 29.5948553 4.943194 24.5230439 4.943194 24.5230439 0.0342979636 18.7224009 0.0342979636 18.7224009 4.943194 14.0107181 4.943194 14.0107181 10.5551983 18.7224009 10.5551983 18.7224009 36.4973205 9.29903537 36.4973205 9.29903537 51.9271168 9.29903537 64.5487674 9.29903537 78.9239014 9.29903537 87.3397642 0.235798499 87.3397642 0.235798499 93.6505895 9.29903537 93.6505895 9.29903537 94.8767417 9.29903537 124.501608 77.8092176 124.501608 77.8092176 94.8767417 77.8092176 93.6505895 84.6945338 93.6505895 84.6945338 87.3397642"></polygon>
                    </g>
                    <rect id="Rectangle-path" fill="#F5F5F5" x="272.051447" y="111.95284" width="64.6259378" height="44.4501608"></rect>
                    <rect id="Rectangle-path" fill="#F5F5F5" x="272.051447" y="70.5766345" width="43.7684887" height="41.3762058"></rect>
                    <rect id="Rectangle-path" stroke="#349AEA" fill="#3598EA" x="292.565916" y="88.698821" width="15.0439443" height="23.2540193"></rect>
                    <rect id="Rectangle-path" fill="#FFFFFF" x="272.051447" y="85.6205788" width="8.89174705" height="12.3086817"></rect>
                    <rect id="Rectangle-path" fill="#E0E0E0" x="280.938907" y="35.0139335" width="5.47052519" height="35.562701"></rect>
                    <rect id="Rectangle-path" fill="#E0E0E0" x="276.493033" y="39.8027867" width="14.7052519" height="5.47052519"></rect>
                    <rect id="Rectangle-path" fill="#E0E0E0" x="263.50268" y="120.158628" width="79.6698821" height="6.15648446"></rect>
                    <circle id="Oval" fill="#FFFFFF" cx="286.409432" cy="136.913183" r="3.07824223"></circle>
                    <circle id="Oval" fill="#FFFFFF" cx="297.35477" cy="136.913183" r="3.07824223"></circle>
                    <circle id="Oval" fill="#FFFFFF" cx="308.29582" cy="136.913183" r="3.07824223"></circle>
                    <circle id="Oval" fill="#FFFFFF" cx="319.23687" cy="136.913183" r="3.07824223"></circle>
                    <rect id="Rectangle-path" fill="#000000" opacity="0.1" x="52.3515541" y="204.445874" width="277.654877" height="8.20578778"></rect>
                    <path d="M17.3033226,144.608789 L113.732047,144.608789 L139.708467,158.966774 L342.495177,157.942122 C344.831726,166.117899 345.834941,172.947481 345.924973,178.683816 C346.015005,172.625938 345.067524,165.239014 342.495177,156.231511 L139.708467,157.26045 L113.719185,142.898178 L17.3033226,142.898178 C16.7664884,145.660932 16.5435665,148.475501 16.6387996,151.288317 C16.6446055,149.045599 16.8671476,146.808691 17.3033226,144.608789 Z" id="Shape" fill="#000000" opacity="0.1"></path>
                    <rect id="Rectangle-path" fill="#000000" opacity="0.05" x="272.051447" y="126.315113" width="64.6259378" height="1.19614148"></rect>
                    <g id="Group" opacity="0.5" transform="translate(28.587353, 149.196141)" fill="url(#linearGradient-7)">
                        <circle id="Oval" cx="5.29903537" cy="5.32904609" r="5.12754555"></circle>
                    </g>
                    <g id="Group" opacity="0.5" transform="translate(51.309753, 149.196141)" fill="url(#linearGradient-8)">
                        <circle id="Oval" cx="5.14469453" cy="5.32904609" r="5.12754555"></circle>
                    </g>
                    <g id="Group" opacity="0.5" transform="translate(73.603430, 149.196141)" fill="url(#linearGradient-9)">
                        <circle id="Oval" cx="5.41907824" cy="5.32904609" r="5.12754555"></circle>
                    </g>
                    <g id="Group" opacity="0.5" transform="translate(96.325831, 149.196141)" fill="url(#linearGradient-10)">
                        <circle id="Oval" cx="5.26473741" cy="5.32904609" r="5.12754555"></circle>
                    </g>
                    <circle id="Oval" fill="#FFFFFF" cx="33.886388" cy="154.525188" r="4.10289389"></circle>
                    <circle id="Oval" fill="#FFFFFF" cx="56.454448" cy="154.525188" r="4.10289389"></circle>
                    <circle id="Oval" fill="#FFFFFF" cx="79.022508" cy="154.525188" r="4.10289389"></circle>
                    <circle id="Oval" fill="#FFFFFF" cx="101.590568" cy="154.525188" r="4.10289389"></circle>
                    <path d="M50.0664523,275.057978 C53.2561629,270.997106 63.2797428,268.883754 72.4501608,269.053631 C81.6205788,269.223508 90.1650589,271.177095 98.3837085,273.098324 C106.602358,275.019553 115.103966,276.997408 124.287245,277.209754 C144.660236,277.680961 161.80493,269.498547 182.105038,268.57029 C206.237942,267.466089 227.65702,276.736525 251.892819,277.118749 C256.154341,277.185486 260.501608,276.963028 264.424437,276.176335 C267.854234,275.49076 270.81672,274.406782 274.045016,273.547285 C290.336549,269.179017 310.69239,270.829251 328.707395,273.25 C346.722401,275.670749 365.423365,278.77505 383.734191,276.914492" id="Shape" fill="#2A5091"></path>
                    <path d="M0.0664523044,255.057978 C3.25616292,250.997106 13.2797428,248.883754 22.4501608,249.053631 C31.6205788,249.223508 40.1650589,251.177095 48.3837085,253.098324 C56.602358,255.019553 65.1039657,256.997408 74.2872454,257.209754 C94.6602358,257.680961 111.80493,249.498547 132.105038,248.57029 C156.237942,247.466089 177.65702,256.736525 201.892819,257.118749 C206.154341,257.185486 210.501608,256.963028 214.424437,256.176335 C217.854234,255.49076 220.81672,254.406782 224.045016,253.547285 C240.336549,249.179017 260.69239,250.829251 278.707395,253.25 C296.722401,255.670749 315.423365,258.77505 333.734191,256.914492" id="Shape" fill="#2A5091"></path>
                    <path d="M50.0664523,235.057978 C53.2561629,230.997106 63.2797428,228.883754 72.4501608,229.053631 C81.6205788,229.223508 90.1650589,231.177095 98.3837085,233.098324 C106.602358,235.019553 115.103966,236.997408 124.287245,237.209754 C144.660236,237.680961 161.80493,229.498547 182.105038,228.57029 C206.237942,227.466089 227.65702,236.736525 251.892819,237.118749 C256.154341,237.185486 260.501608,236.963028 264.424437,236.176335 C267.854234,235.49076 270.81672,234.406782 274.045016,233.547285 C290.336549,229.179017 310.69239,230.829251 328.707395,233.25 C346.722401,235.670749 365.423365,238.77505 383.734191,236.914492" id="Shape" fill="#2A5091"></path>
                    <path d="M0.0664523044,215.057978 C3.25616292,210.997106 13.2797428,208.883754 22.4501608,209.053631 C31.6205788,209.223508 40.1650589,211.177095 48.3837085,213.098324 C56.602358,215.019553 65.1039657,216.997408 74.2872454,217.209754 C94.6602358,217.680961 111.80493,209.498547 132.105038,208.57029 C156.237942,207.466089 177.65702,216.736525 201.892819,217.118749 C206.154341,217.185486 210.501608,216.963028 214.424437,216.176335 C217.854234,215.49076 220.81672,214.406782 224.045016,213.547285 C240.336549,209.179017 260.69239,210.829251 278.707395,213.25 C296.722401,215.670749 315.423365,218.77505 333.734191,216.914492" id="Shape" fill="#2A5091"></path>
                    <g id="Group" opacity="0.5" transform="translate(83.892819, 28.724544)" fill="url(#linearGradient-11)">
                        <path d="M12.8403001,20.5444802 L9.886388,20.0214362 C9.96307225,19.2906475 10.0818837,18.5648955 10.2422294,17.8478028 C10.7438371,11.511254 6.3494105,4.84030011 0.171489818,3.15969989 L0.96034298,0.257234727 C6.58949625,1.78778135 10.9281886,6.49946409 12.5787781,11.9871383 C15.5218934,6.94966176 20.4452049,3.37967763 26.14791,2.14790997 L26.7438371,5.09753483 C20.2700965,6.38370847 14.7652733,11.9099678 13.2261522,18.3279743 C13.1524412,19.0753235 13.023471,19.8161859 12.8403001,20.5444802 Z" id="Shape"></path>
                    </g>
                    <g id="Group" opacity="0.5" transform="translate(267.815648, 0.000000)" fill="url(#linearGradient-12)">
                        <path d="M8.34297964,13.5133976 L6.43515541,13.1747053 C6.48527525,12.7033287 6.56257434,12.2352397 6.66666667,11.772776 C6.98821008,7.68703108 4.15434084,3.38263666 0.171489818,2.29796356 L0.681672026,0.424437299 C4.31296892,1.414791 7.11254019,4.45016077 8.17577706,7.99142551 C10.0750702,4.74231306 13.2514856,2.44011186 16.9303323,1.64630225 L17.3161844,3.54983923 C13.1404073,4.40728832 9.59914255,7.94426581 8.59592712,12.0814577 C8.54715438,12.5643717 8.46260631,13.0429997 8.34297964,13.5133976 Z" id="Shape"></path>
                    </g>
                    <g id="Group" opacity="0.5" transform="translate(14.439443, 4.287245)" fill="url(#linearGradient-13)">
                        <circle id="Oval" cx="28.8874598" cy="29.0160772" r="28.7245445"></circle>
                    </g>
                </g>
            </g>
        </g>
    </g>
</svg>