<?xml version="1.0" encoding="UTF-8"?>
<svg width="487px" height="700px" viewBox="0 0 487 700" version="1.1" xmlns="http://www.w3.org/2000/svg" xmlns:xlink="http://www.w3.org/1999/xlink">
    <!-- Generator: Sketch 49 (51002) - http://www.bohemiancoding.com/sketch -->
    <title>pic</title>
    <desc>Created with Sketch.</desc>
    <defs>
        <linearGradient x1="100%" y1="100%" x2="0%" y2="0%" id="linearGradient-1">
            <stop stop-color="#4285F4" offset="0%"></stop>
            <stop stop-color="#29ABE2" offset="100%"></stop>
        </linearGradient>
        <linearGradient x1="50.0031612%" y1="100%" x2="50.0031612%" y2="0%" id="linearGradient-2">
            <stop stop-color="#808080" stop-opacity="0.25" offset="0%"></stop>
            <stop stop-color="#808080" stop-opacity="0.12" offset="54%"></stop>
            <stop stop-color="#808080" stop-opacity="0.1" offset="100%"></stop>
        </linearGradient>
        <linearGradient x1="44449%" y1="79567%" x2="44449%" y2="41160%" id="linearGradient-3">
            <stop stop-color="#808080" stop-opacity="0.25" offset="0%"></stop>
            <stop stop-color="#808080" stop-opacity="0.12" offset="54%"></stop>
            <stop stop-color="#808080" stop-opacity="0.1" offset="100%"></stop>
        </linearGradient>
        <linearGradient x1="44528%" y1="42726%" x2="44528%" y2="29414%" id="linearGradient-4">
            <stop stop-color="#808080" stop-opacity="0.25" offset="0%"></stop>
            <stop stop-color="#808080" stop-opacity="0.12" offset="54%"></stop>
            <stop stop-color="#808080" stop-opacity="0.1" offset="100%"></stop>
        </linearGradient>
        <linearGradient x1="40269%" y1="81138%" x2="40269%" y2="76240%" id="linearGradient-5">
            <stop stop-color="#808080" stop-opacity="0.25" offset="0%"></stop>
            <stop stop-color="#808080" stop-opacity="0.12" offset="54%"></stop>
            <stop stop-color="#808080" stop-opacity="0.1" offset="100%"></stop>
        </linearGradient>
        <linearGradient x1="48726%" y1="81138%" x2="48726%" y2="76240%" id="linearGradient-6">
            <stop stop-color="#808080" stop-opacity="0.25" offset="0%"></stop>
            <stop stop-color="#808080" stop-opacity="0.12" offset="54%"></stop>
            <stop stop-color="#808080" stop-opacity="0.1" offset="100%"></stop>
        </linearGradient>
        <linearGradient x1="59700%" y1="82348%" x2="59700%" y2="24826%" id="linearGradient-7">
            <stop stop-color="#808080" stop-opacity="0.25" offset="0%"></stop>
            <stop stop-color="#808080" stop-opacity="0.12" offset="54%"></stop>
            <stop stop-color="#808080" stop-opacity="0.1" offset="100%"></stop>
        </linearGradient>
        <linearGradient x1="77657%" y1="43503%" x2="77657%" y2="23000%" id="linearGradient-8">
            <stop stop-color="#808080" stop-opacity="0.25" offset="0%"></stop>
            <stop stop-color="#808080" stop-opacity="0.12" offset="54%"></stop>
            <stop stop-color="#808080" stop-opacity="0.1" offset="100%"></stop>
        </linearGradient>
        <linearGradient x1="19562%" y1="50422%" x2="19562%" y2="39459%" id="linearGradient-9">
            <stop stop-color="#808080" stop-opacity="0.25" offset="0%"></stop>
            <stop stop-color="#808080" stop-opacity="0.12" offset="54%"></stop>
            <stop stop-color="#808080" stop-opacity="0.1" offset="100%"></stop>
        </linearGradient>
    </defs>
    <g id="LSR" stroke="none" stroke-width="1" fill="none" fill-rule="evenodd">
        <g id="Sign-Up-1" transform="translate(-234.000000, -50.000000)">
            <g id="pic" transform="translate(235.000000, 50.000000)">
                <rect id="Rectangle" fill="url(#linearGradient-1)" x="0" y="0" width="485" height="700"></rect>
                <g id="Abstractnaya-hren'" opacity="0.52" transform="translate(0.000000, 289.000000)" stroke="#4A4A4A">
                    <g id="Group" opacity="0.31" transform="translate(0.000000, 37.000000)">
                        <path d="M0.149294643,223.765453 L0.149294643,149.137349" id="Shape"></path>
                        <polyline id="Shape" points="69.3760662 261.072076 138.602838 223.765453 138.602838 149.137349 69.3760662 111.830726 0.149294643 149.137349 0.149294643 223.765453"></polyline>
                        <polygon id="Shape" points="277.056381 149.137349 207.829609 111.830726 138.602838 149.137349 138.602838 223.765453 207.829609 261.072076 277.056381 223.765453"></polygon>
                        <polygon id="Shape" points="415.509924 149.137349 346.283152 111.830726 277.056381 149.137349 277.056381 223.765453 346.283152 261.072076 415.509924 223.765453"></polygon>
                        <path d="M0.149294643,149.642497 L69.3760662,112.321016" id="Shape"></path>
                        <polyline id="Shape" points="69.3760662 112.321016 138.602838 149.642497 207.829609 112.321016 207.829609 37.7077697 138.602838 0.386289209"></polyline>
                        <polygon id="Shape" points="346.283152 37.7077697 277.056381 0.386289209 207.829609 37.7077697 207.829609 112.321016 277.056381 149.642497 346.283152 112.321016"></polygon>
                        <polygon id="Shape" points="484.736695 37.7077697 415.509924 0.386289209 346.283152 37.7077697 346.283152 112.321016 415.509924 149.642497 484.736695 112.321016"></polygon>
                        <polyline id="Shape" points="0.149294643 373.467379 69.3760662 336.145899 69.3760662 261.532652"></polyline>
                        <polygon id="Shape" points="207.829609 261.532652 138.602838 224.211171 69.3760662 261.532652 69.3760662 336.145899 138.602838 373.467379 207.829609 336.145899"></polygon>
                        <polygon id="Shape" points="346.283152 261.532652 277.056381 224.211171 207.829609 261.532652 207.829609 336.145899 277.056381 373.467379 346.283152 336.145899"></polygon>
                        <polygon id="Shape" points="484.736695 261.532652 415.509924 224.211171 346.283152 261.532652 346.283152 336.145899 415.509924 373.467379 484.736695 336.145899"></polygon>
                    </g>
                    <g id="Group" opacity="0.31">
                        <polyline id="Shape" points="0.149294643 112.367891 69.3760662 149.689371 138.602838 112.367891 138.602838 37.7397869"></polyline>
                        <polygon id="Shape" points="277.056381 37.7397869 207.829609 0.433163645 138.602838 37.7397869 138.602838 112.367891 207.829609 149.689371 277.056381 112.367891"></polygon>
                        <polygon id="Shape" points="415.509924 37.7397869 346.283152 0.433163645 277.056381 37.7397869 277.056381 112.367891 346.283152 149.689371 415.509924 112.367891"></polygon>
                        <polyline id="Shape" points="69.3760662 373.499396 138.602838 336.192773 138.602838 261.564669 69.3760662 224.258046 0.149294643 261.564669"></polyline>
                        <polygon id="Shape" points="277.056381 261.564669 207.829609 224.258046 138.602838 261.564669 138.602838 336.192773 207.829609 373.499396 277.056381 336.192773"></polygon>
                        <polygon id="Shape" points="415.509924 261.564669 346.283152 224.258046 277.056381 261.564669 277.056381 336.192773 346.283152 373.499396 415.509924 336.192773"></polygon>
                        <polyline id="Shape" points="0.149294643 262.069817 69.3760662 224.763193 69.3760662 150.13509 0.149294643 112.813609"></polyline>
                        <polygon id="Shape" points="207.829609 150.13509 138.602838 112.813609 69.3760662 150.13509 69.3760662 224.763193 138.602838 262.069817 207.829609 224.763193"></polygon>
                        <polygon id="Shape" points="346.283152 150.13509 277.056381 112.813609 207.829609 150.13509 207.829609 224.763193 277.056381 262.069817 346.283152 224.763193"></polygon>
                        <polygon id="Shape" points="484.736695 150.13509 415.509924 112.813609 346.283152 150.13509 346.283152 224.763193 415.509924 262.069817 484.736695 224.763193"></polygon>
                    </g>
                </g>
                <g id="undraw_Astronaut_0o7w" transform="translate(18.000000, 3.000000)">
                    <g id="cce41613-5798-418e-bd1c-d8ab89d50e24" transform="translate(73.285714, 283.785714)" fill="url(#linearGradient-2)" fill-rule="nonzero">
                        <rect id="Rectangle-path" x="0.617142857" y="0.488571429" width="101.680714" height="172.157143" rx="13"></rect>
                    </g>
                    <rect id="3cc1ef72-f286-4cd9-bc37-3a4bc0282736" fill="#677B9D" fill-rule="nonzero" x="76.815" y="287.9" width="96.5378571" height="164.063571" rx="13"></rect>
                    <polyline id="3aab063b-c154-4fae-90f4-bd3dbd8a15cc" points="76.815 510.084286 119.449286 510.084286 108.970714 552.905"></polyline>
                    <g id="1a4f509f-11ed-42f2-baf8-98baf11ce138" transform="translate(83.571429, 308.857143)" fill="#E0E0E0" fill-rule="nonzero">
                        <polygon id="Shape" points="70.74 18.4628571 15.6021429 19.6007143 0.334285714 2.05714286 82.5364286 0.578571429"></polygon>
                    </g>
                    <g id="29eb97ed-3d6d-42b6-a356-b039b63b46ac" transform="translate(83.571429, 299.857143)" fill="#E0E0E0" fill-rule="nonzero">
                        <polygon id="Shape" points="82.5364286 10.9414286 0.334285714 10.9414286 16.74 2.17285714 65.0442857 0.572142857"></polygon>
                    </g>
                    <path d="M226.8,334.115 C219.027857,330.669286 208.607143,335.400714 206.395714,343.359286 C200.552143,326.715714 186.402857,313.145 169.405714,307.005714 C166.596429,305.99 158.798571,302.897857 156.638571,305.308571 C155.629286,306.427143 153.700714,310.843571 153.822857,314.527143 L96.0107143,314.527143 C96.0107143,313.807143 96.0107143,313.087143 96.0107143,312.367143 C95.9785714,303.965 89.2542857,303.675714 81.0835714,305.636429 C74.0006689,307.455354 67.4645721,310.964949 62.0357143,315.864286 C53.3507143,323.527143 47.3142857,333.510714 41.4192857,343.333571 L31.1335714,333.118571 C29.9957143,331.993571 28.6521429,330.778571 27.0257143,330.855714 C25.3028571,330.939286 24.0621429,332.424286 23.0528571,333.774286 C18.5142857,339.894286 13.8342857,346.329286 12.7671429,353.78 C11.6935714,361.115 14.2521429,368.437143 16.7657143,375.437857 C19.2278571,382.271429 22.4935714,391.946429 29.5585714,394.382857 C37.1571429,397.005714 45.18,397.314286 51.7692857,392.814286 C62.055,385.742857 72.6557143,378.427143 80.1642857,368.758571 L80.1642857,442.237143 L81.0321429,442.237143 L73.9607143,551.33 L121.236429,551.085714 L124.605,442.237143 L125.987143,442.237143 L128.288571,551.066429 L176.387143,551.310714 L169.167857,442.237143 L170.659286,442.237143 L170.659286,368.032143 L171.945,369.099286 L195.267857,388.61 C200.121429,392.672857 205.675714,396.967143 212.091429,396.652143 C216.700714,396.420714 220.879286,388.693571 223.823571,385.267143 C226.767857,381.840714 228.677143,377.713571 230.547857,373.644286 C233.646429,366.894286 236.802857,359.932143 237.015,352.552143 C237.227143,345.172143 233.755714,337.194286 226.8,334.115 Z" id="Shape" fill="url(#linearGradient-3)" fill-rule="nonzero"></path>
                    <path d="M222.377143,335.812143 C214.939286,332.398571 204.975,337.097857 202.86,344.985714 C197.267143,328.470714 183.735,315.022143 167.502857,308.921429 C164.815714,307.912143 158.316429,304.845714 156.252857,307.237143 C155.288571,308.349286 155.365714,312.733571 155.481429,316.385 L94.41,316.385 C94.41,315.671429 94.41,314.951429 94.41,314.244286 C94.3778571,305.887143 90.8357143,305.623571 83.0185714,307.571429 C76.2107143,309.268571 69.9492857,313.01 64.8,317.722143 C56.4942857,325.320714 50.7214286,335.227143 45.0771429,344.972857 L35.2285714,334.835 C34.1421429,333.716429 32.85,332.514286 31.2942857,332.591429 C29.7385714,332.668571 28.4592857,334.147143 27.495,335.490714 C23.1492857,341.559286 18.675,347.949286 17.64,355.342143 C16.6178571,362.619286 19.0607143,369.89 21.4971429,376.832857 C23.85,383.615 26.9742857,391.213571 33.7114286,393.630714 C40.9821429,396.234286 48.6578571,391.547857 54.9578571,387.08 C64.8257143,380.085714 74.9378571,372.808571 82.1185714,363.210714 L82.1185714,443.072857 L82.9478571,443.072857 L76.1978571,551.310714 L119.494286,551.310714 L124.637143,443.072857 L125.961429,443.072857 L129.953571,551.310714 L174.156429,551.310714 L167.245714,443.072857 L168.672857,443.072857 L168.672857,364.451429 L169.887857,365.512143 L192.201429,384.868571 C196.842857,388.899286 202.159286,393.167857 208.272857,392.846429 C212.682857,392.615 216.681429,389.940714 219.497143,386.54 C222.312857,383.139286 224.138571,379.044286 225.925714,375.007143 C228.889286,368.315 231.904286,361.404286 232.11,354.082143 C232.315714,346.76 229.030714,338.872143 222.377143,335.812143 Z" id="Shape" fill="#FFFFFF" fill-rule="nonzero"></path>
                    <path d="M34.29,304.222143 C31.3971429,303.264286 28.0992857,304.813571 26.3121429,307.275714 C24.525,309.737857 23.9914286,312.913571 23.9785714,315.960714 C23.9785714,317.760714 24.0814286,319.721429 23.0078571,321.161429 C22.0000722,322.340431 20.5281611,323.021219 18.9771429,323.025714 C17.4485696,323.020777 15.9226404,322.898273 14.4128571,322.659286 C11.6678571,322.389286 8.62714286,322.736429 6.65357143,324.645714 C4.68,326.555 4.48714286,330.386429 6.85928571,331.787857 C4.08214286,334.166429 4.15928571,339.097143 7.00071429,341.392143 C5.65402733,342.708633 5.17614373,344.677915 5.76963479,346.465225 C6.36312584,348.252536 7.92403881,349.544819 9.79071429,349.794286 C7.36071429,350.668571 6.46714286,354.242857 8.19642857,356.158571 C9.225,357.296429 10.7678571,357.733571 12.285,358.087143 C15.5164286,358.897143 18.7628571,359.655714 22.0242857,360.362857 C24.9171429,361.005714 27.9771429,361.565 30.78,360.639286 C38.1921429,358.19 35.325,348.842857 34.8557143,343.282143 C34.1442857,334.937857 33.8142857,326.565714 33.8657143,318.165714 C33.8721429,316.88 34.7014286,304.363571 34.29,304.222143 Z" id="0c32cf8a-9850-40d7-b2dc-353b7a6759c6" fill="#677B9D" fill-rule="nonzero"></path>
                    <path d="M173.577857,260.951429 L164.931429,260.951429 C159.833571,242.135 143.961429,228.930714 125.157857,228.930714 C106.354286,228.930714 90.4692857,242.102857 85.3714286,260.951429 L76.9307143,260.951429 L76.9307143,280.468571 L84.1564286,280.468571 C87.2678571,300.937143 104.432143,314.501429 125.151429,314.501429 C145.870714,314.501429 163.035,300.937143 166.146429,280.468571 L173.590714,280.468571 L173.577857,260.951429 Z" id="Shape" fill="url(#linearGradient-4)" fill-rule="nonzero"></path>
                    <path d="M171.154286,262.153571 L162.925714,262.153571 C158.078571,245.021429 142.997143,231.161429 125.145,231.161429 C107.292857,231.161429 92.2114286,245.015 87.3642857,262.153571 L79.3478571,262.153571 L79.3478571,279.928571 L86.2071429,279.928571 C89.1642857,298.571429 105.492857,310.920714 125.145,310.920714 C144.797143,310.920714 161.145,298.565 164.082857,279.928571 L171.154286,279.928571 L171.154286,262.153571 Z" id="Shape" fill="#FFFFFF" fill-rule="nonzero"></path>
                    <circle id="7a3910d7-67a0-4ff3-88ee-27dedf2e16a4" fill="#677B9D" fill-rule="nonzero" cx="124.92" cy="274.001429" r="31.8985714"></circle>
                    <g id="34c43434-1451-4ab0-8354-03d0c452d8e6" transform="translate(73.285714, 529.357143)" fill="url(#linearGradient-5)" fill-rule="nonzero">
                        <path d="M48.9471429,23.0978571 C48.9471429,33.75 38.0185714,31.9307143 24.5892857,31.9307143 C11.16,31.9307143 0.231428571,33.7371429 0.231428571,23.0978571 C0.231428571,12.4585714 11.16,0.565714286 24.5892857,0.565714286 C38.0185714,0.565714286 48.9471429,12.4457143 48.9471429,23.0978571 Z" id="Shape"></path>
                    </g>
                    <g id="ad2d4070-7865-476e-a143-7337cc82fa1a" transform="translate(127.285714, 529.357143)" fill="url(#linearGradient-6)" fill-rule="nonzero">
                        <path d="M49.3135714,23.0978571 C49.3135714,33.75 38.385,31.9307143 24.9557143,31.9307143 C11.5264286,31.9307143 0.597857143,33.75 0.597857143,23.0978571 C0.597857143,12.4457143 11.5264286,0.565714286 24.9557143,0.565714286 C38.385,0.565714286 49.3135714,12.4457143 49.3135714,23.0978571 Z" id="Shape"></path>
                    </g>
                    <g id="7c5e0dbc-1e9f-4751-9c9a-ae23d0c67b0d" transform="translate(75.214286, 530.642857)" fill="#E0E0E0" fill-rule="nonzero">
                        <path d="M45.2185714,21.24 C45.2185714,30.9921429 35.1192857,29.3271429 22.6607143,29.3271429 C10.2021429,29.3271429 0.102857143,30.9921429 0.102857143,21.24 C0.102857143,11.4878571 10.2021429,0.617142857 22.6607143,0.617142857 C35.1192857,0.617142857 45.2185714,11.4878571 45.2185714,21.24 Z" id="Shape"></path>
                    </g>
                    <g id="296e55fe-bb0b-4dd7-ab7e-7a6e065d6a5f" transform="translate(129.857143, 532.571429)" fill="#E0E0E0" fill-rule="nonzero">
                        <path d="M45.2571429,20.6807143 C45.2571429,30.4328571 35.1578571,28.7678571 22.6992857,28.7678571 C10.2407143,28.7678571 0.141428571,30.4328571 0.141428571,20.6807143 C0.141428571,10.9285714 10.2407143,0.0578571429 22.6992857,0.0578571429 C35.1578571,0.0578571429 45.2571429,10.9285714 45.2571429,20.6807143 Z" id="Shape"></path>
                    </g>
                    <path d="M230.965714,207.594286 C230.972503,203.915978 228.522461,200.68584 224.97851,199.700748 C221.434559,198.715657 217.669032,200.21809 215.776636,203.372267 C213.884239,206.526443 214.330781,210.555972 216.867857,213.219286 L216.867857,566.263571 C216.871393,567.877538 218.178891,569.185036 219.792857,569.188571 L225.019286,569.188571 C226.633252,569.185036 227.94075,567.877538 227.944286,566.263571 L227.944286,213.92 C229.852246,212.373711 230.962073,210.050158 230.965714,207.594286 Z" id="Shape" fill="url(#linearGradient-7)" fill-rule="nonzero"></path>
                    <path d="M229.969286,207.594286 C229.977917,204.130335 227.512395,201.153981 224.107352,200.517815 C220.702309,199.881648 217.328466,201.767031 216.085827,205.000431 C214.843189,208.233831 216.08601,211.89346 219.040714,213.701429 L219.040714,564.566429 C219.04425,566.180395 220.351748,567.487893 221.965714,567.491429 L224.074286,567.491429 C225.688252,567.487893 226.99575,566.180395 226.999286,564.566429 L226.999286,213.38 C228.858389,212.03807 229.962554,209.8871 229.969286,207.594286 Z" id="Shape" fill="#E0E0E0" fill-rule="nonzero"></path>
                    <path d="M218.256429,340.697857 C216.970714,342.684286 214.399286,344.336429 212.258571,343.269286 C210.535714,342.414286 209.982857,340.254286 209.764286,338.338571 C209.277447,334.059268 209.494606,329.729124 210.407143,325.52 C210.96,322.948571 212.136429,320.075 214.662857,319.4 C216.237857,318.982143 217.922143,319.58 219.304286,320.447857 C220.686429,321.315714 221.875714,322.447143 223.309286,323.257143 C226.035,324.825714 229.352143,325.108571 232.463571,324.652143 C234.006429,324.427143 235.523571,324.009286 237.072857,323.9 C238.619011,323.702237 240.188719,323.9803 241.572857,324.697143 C242.977153,325.455789 243.812683,326.961248 243.713571,328.554286 C243.514286,330.097143 241.887857,331.408571 240.39,330.977857 C241.723852,331.704283 242.863687,332.740496 243.713571,333.999286 C244.56225,335.291798 244.655414,336.939337 243.957857,338.319286 C243.192857,339.605 241.29,340.247857 240.062143,339.354286 C241.315714,340.382857 242.633571,341.475714 243.199286,342.986429 C243.765,344.497143 243.308571,346.541429 241.797857,347.132857 C241.16442,347.298751 240.519914,347.419059 239.869286,347.492857 C239.226429,347.640714 238.551429,348.084286 238.5,348.746429 C238.442143,349.511429 239.207143,350.032143 239.657143,350.675 C240.66,352.037857 240.107143,354.088571 238.892143,355.265 C237.677143,356.441429 235.986429,356.968571 234.392143,357.457143 C231.975,358.183571 229.557857,358.91 227.127857,359.591429 C224.472857,360.337143 221.676429,361.031429 218.982857,360.452857 C215.531244,359.714691 212.840771,357.008593 212.122604,353.552763 C211.404437,350.096934 212.793984,346.542954 215.665714,344.490714 C216.99,343.539286 217.240714,341.919286 218.307857,340.704286 C219.637471,339.134761 220.326166,337.121478 220.236429,335.066429 C220.236429,332.032143 221.393571,329.100714 220.686429,326.15 C220.519286,326.15 220.397143,326.15 220.23,326.214286 C220.095,331.28 221.290714,336.101429 218.256429,340.697857 Z" id="75078eba-178e-4938-aaf4-b7f041ea2d55" fill="#677B9D" fill-rule="nonzero"></path>
                    <g id="59ef6675-eba5-4924-a41d-ef258633805a" transform="translate(226.928571, 187.357143)" fill="url(#linearGradient-8)" fill-rule="nonzero">
                        <path d="M222.505714,107.993571 C148.371429,24.4221429 74.2371429,191.565 0.0771428571,107.993571 L0.0771428571,24.4221429 C74.2114286,107.993571 148.345714,-59.1492857 222.505714,24.4221429 C222.505714,52.2792857 222.505714,80.1364286 222.505714,107.993571 Z" id="Shape"></path>
                    </g>
                    <g id="aee1670e-e8ab-4e69-9ed6-c33b4299fb78" transform="translate(226.928571, 193.785714)" fill="#677B9D" fill-rule="nonzero">
                        <path d="M220.114286,98.4407143 C146.777143,22.3328571 73.4335714,174.548571 0.0964285714,98.4407143 L0.0964285714,22.3392857 C73.4335714,98.4471429 146.777143,-53.7685714 220.114286,22.3392857 L220.114286,98.4407143 Z" id="Shape"></path>
                    </g>
                    <g id="d941d43a-1bd7-497d-a2ef-a3e2e2659e0c" transform="translate(92.571429, 342.285714)" fill="url(#linearGradient-9)" fill-rule="nonzero">
                        <rect id="Rectangle-path" x="0.462857143" y="0.379285714" width="65.4428571" height="70.4764286" rx="6.38"></rect>
                    </g>
                    <rect id="304248a4-1768-4f23-b9cb-e161915f6967" fill="#677B9D" fill-rule="nonzero" x="94.3778571" y="344.844286" width="62.4407143" height="66.0985714" rx="6.38"></rect>
                    <rect id="076458b3-f8b8-42f1-ba43-cb3b5508f8a9" fill="#000000" fill-rule="nonzero" opacity="0.2" x="102.477857" y="357.418571" width="11.4428571" height="30.51"></rect>
                    <rect id="45128737-2df6-4b8c-aef6-04e2ae683cff" fill="#000000" fill-rule="nonzero" opacity="0.2" x="127.317857" y="368.552857" width="15.0492857" height="10.2985714"></rect>
                    <rect id="211ca6c0-c299-4849-b228-cb0ba183ce3b" fill="#000000" fill-rule="nonzero" opacity="0.2" x="138.246429" y="352.275714" width="8.31857143" height="7.39928571"></rect>
                    <circle id="4ad46ce1-f00a-4f7a-9fe8-8c270b89c73d" fill="#000000" fill-rule="nonzero" opacity="0.2" cx="142.977857" cy="393.000714" r="9.05785714"></circle>
                    <path d="M128.931429,249.148571 C138.944247,249.139456 148.378378,253.839854 154.401429,261.838571 C149.677131,250.413451 138.776339,242.747155 126.426726,242.164557 C114.077113,241.581959 102.503018,248.187993 96.7241257,259.11762 C90.9452338,270.047248 92.0024046,283.331892 99.4371429,293.21 C95.3812547,283.368142 96.5009042,272.151801 102.422262,263.305903 C108.343619,254.460004 118.286599,249.149914 128.931429,249.148571 Z" id="ff63785f-5c7f-4def-be10-0bb3de2ca90f" fill="#000000" fill-rule="nonzero" opacity="0.2"></path>
                    <path d="M187.47,116.642857 L186.222857,116.642857 C185.965714,116.642857 185.342143,115.646429 185.342143,115.357143 L185.342143,114.2 C185.342143,113.293571 184.32,110.812143 183.413571,110.812143 C182.507143,110.812143 181.485,113.293571 181.485,114.2 L181.485,115.357143 C181.485,115.762143 181.17,116.642857 180.784286,116.642857 L179.537143,116.642857 C178.630714,116.642857 176.149286,117.343571 176.149286,118.25 C176.149286,119.156429 178.630714,119.857143 179.537143,119.857143 L181.002857,119.857143 C181.472143,119.857143 181.465714,120.339286 181.465714,120.59 L181.465714,122.139286 C181.465714,123.045714 182.487857,125.527143 183.394286,125.527143 C184.300714,125.527143 185.322857,123.045714 185.322857,122.139286 L185.322857,120.59 C185.322857,120.384286 185.734286,119.857143 185.965714,119.857143 L187.457143,119.857143 C188.363571,119.857143 190.845,119.156429 190.845,118.25 C190.845,117.343571 188.376429,116.642857 187.47,116.642857 Z" id="ee614fe0-a70d-49e2-ad0f-cfa0665daf52" fill="#2196F3" fill-rule="nonzero"></path>
                    <path d="M11.3271429,183.5 L10.08,183.5 C9.82285714,183.5 9.19928571,182.503571 9.19928571,182.214286 L9.19928571,181.057143 C9.19928571,180.150714 8.17714286,177.669286 7.27071429,177.669286 C6.36428571,177.669286 5.34214286,180.150714 5.34214286,181.057143 L5.34214286,182.214286 C5.34214286,182.619286 5.02714286,183.5 4.64142857,183.5 L3.39428571,183.5 C2.48785714,183.5 0.00642857143,184.200714 0.00642857143,185.107143 C0.00642857143,186.013571 2.48785714,186.714286 3.39428571,186.714286 L4.86,186.714286 C5.32928571,186.714286 5.32285714,187.196429 5.32285714,187.447143 L5.32285714,188.996429 C5.32285714,189.902857 6.345,192.384286 7.25142857,192.384286 C8.15785714,192.384286 9.18,189.902857 9.18,188.996429 L9.18,187.447143 C9.18,187.241429 9.59142857,186.714286 9.82285714,186.714286 L11.3142857,186.714286 C12.2207143,186.714286 14.7021429,186.013571 14.7021429,185.107143 C14.7021429,184.200714 12.2335714,183.5 11.3271429,183.5 Z" id="acc1d592-062e-4dcd-a91f-f2c750c33fa0" fill="#2196F3" fill-rule="nonzero"></path>
                    <path d="M296.074286,135.928571 L295.277143,135.928571 C295.116429,135.928571 294.634286,135.285714 294.634286,135.118571 L294.634286,134.379286 C294.634286,133.800714 293.927143,132.219286 293.348571,132.219286 C292.77,132.219286 292.062857,133.800714 292.062857,134.379286 L292.062857,135.118571 C292.062857,135.375714 292.062857,135.928571 291.805714,135.928571 L290.995714,135.928571 C290.417143,135.928571 288.835714,136.314286 288.835714,136.892857 C288.835714,137.471429 290.417143,137.857143 290.995714,137.857143 L291.947143,137.857143 C292.249286,137.857143 292.056429,138.294286 292.056429,138.448571 L292.056429,139.451429 C292.056429,140.03 292.763571,141.611429 293.342143,141.611429 C293.920714,141.611429 294.627857,140.03 294.627857,139.451429 L294.627857,138.467857 C294.627857,138.339286 294.962143,137.876429 295.11,137.876429 L296.074286,137.876429 C296.652857,137.876429 298.234286,137.490714 298.234286,136.912143 C298.234286,136.333571 296.633571,135.928571 296.074286,135.928571 Z" id="e9c2f9d0-6216-43dd-aafe-1aef442d8198" fill="#1976D2" fill-rule="nonzero"></path>
                    <path d="M71.0742857,172.571429 L70.2771429,172.571429 C70.1164286,172.571429 69.6342857,171.928571 69.6342857,171.761429 L69.6342857,171.022143 C69.6342857,170.443571 68.9271429,168.862143 68.3485714,168.862143 C67.77,168.862143 67.0628571,170.443571 67.0628571,171.022143 L67.0628571,171.761429 C67.0628571,172.018571 67.0628571,172.571429 66.8057143,172.571429 L65.9957143,172.571429 C65.4171429,172.571429 63.8357143,172.957143 63.8357143,173.535714 C63.8357143,174.114286 65.4171429,174.5 65.9957143,174.5 L66.9471429,174.5 C67.2492857,174.5 67.0564286,174.937143 67.0564286,175.091429 L67.0564286,176.094286 C67.0564286,176.672857 67.7635714,178.254286 68.3421429,178.254286 C68.9207143,178.254286 69.6278571,176.672857 69.6278571,176.094286 L69.6278571,175.110714 C69.6278571,174.982143 69.9621429,174.519286 70.11,174.519286 L71.0742857,174.519286 C71.6528571,174.519286 73.2342857,174.133571 73.2342857,173.555 C73.2342857,172.976429 71.6335714,172.571429 71.0742857,172.571429 Z" id="13867d9c-cfe7-4b60-a8c5-3f71e99c3e02" fill="#1976D2" fill-rule="nonzero"></path>
                    <circle id="cb349740-a417-4f38-a613-4379a7fe1f38" fill="#64B5F6" fill-rule="nonzero" cx="253.8" cy="120.821429" r="4.82142857"></circle>
                    <circle id="be23bb10-1d2e-418b-af6d-2d6967ae971b" fill="#0D47A1" fill-rule="nonzero" cx="64.8" cy="228.390714" r="2.25"></circle>
                    <circle id="9efc09db-f667-434b-9915-b8177f90eb0b" fill="#0071BC" fill-rule="nonzero" cx="244.157143" cy="166.676429" r="1.60714286"></circle>
                    <circle id="e31fdc7b-a5f8-44bf-aafe-55a25c9ddf7f" fill="#64B5F6" fill-rule="nonzero" cx="62.5242857" cy="130.117143" r="4.47428571"></circle>
                    <circle id="1b095ea7-cb8e-44fa-8db9-d77434a32042" fill="#64B5F6" fill-rule="nonzero" cx="308.738571" cy="184.76" r="4.47428571"></circle>
                    <circle id="0045b9d1-e494-49ec-9bae-4feb39b517d1" fill="#64B5F6" fill-rule="nonzero" cx="23.0014286" cy="147.043571" r="2.23714286"></circle>
                    <circle id="de43a1f8-3987-4c14-8b8b-500a4e27f972" fill="#82A9FF" fill-rule="nonzero" cx="207.501429" cy="192.686429" r="2.23714286"></circle>
                    <circle id="b38b0c10-cbab-47c9-839f-7ab983c113e8" fill="#82A9FF" fill-rule="nonzero" cx="41.2007143" cy="232.627143" r="4.17857143"></circle>
                    <circle id="e67cfae9-b598-4bd2-a0f9-80d7ff6e0a16" fill="#0D47A1" fill-rule="nonzero" cx="124.077857" cy="120.313571" r="2.385"></circle>
                    <circle id="991e40b0-3269-43b4-8db7-0a4a8d214268" fill="#64B5F6" fill-rule="nonzero" cx="183.728571" cy="155.535714" r="4.82142857"></circle>
                    <circle id="1d77e6b8-da9e-4299-ade6-ad650e1207bd" fill="#0071BC" fill-rule="nonzero" cx="138.085714" cy="217.462143" r="1.60714286"></circle>
                    <circle id="1e33811a-9f5a-4f3e-be99-0f7e1dde7905" fill="#0D47A1" fill-rule="nonzero" cx="124.720714" cy="169.170714" r="2.385"></circle>
                    <path d="M365.541429,146.857143 L364.294286,146.857143 C364.037143,146.857143 363.413571,145.860714 363.413571,145.571429 L363.413571,144.414286 C363.413571,143.507857 362.391429,141.026429 361.485,141.026429 C360.578571,141.026429 359.556429,143.507857 359.556429,144.414286 L359.556429,145.571429 C359.556429,145.976429 359.241429,146.857143 358.855714,146.857143 L357.608571,146.857143 C356.702143,146.857143 354.220714,147.557857 354.220714,148.464286 C354.220714,149.370714 356.702143,150.071429 357.608571,150.071429 L359.074286,150.071429 C359.543571,150.071429 359.537143,150.553571 359.537143,150.804286 L359.537143,152.353571 C359.537143,153.26 360.559286,155.741429 361.465714,155.741429 C362.372143,155.741429 363.394286,153.26 363.394286,152.353571 L363.394286,150.804286 C363.394286,150.598571 363.805714,150.071429 364.037143,150.071429 L365.528571,150.071429 C366.435,150.071429 368.916429,149.370714 368.916429,148.464286 C368.916429,147.557857 366.447857,146.857143 365.541429,146.857143 Z" id="c488d0a9-6894-4c9c-aef4-d1faab1984cf" fill="#2196F3" fill-rule="nonzero"></path>
                    <path d="M425.288571,135.928571 L424.491429,135.928571 C424.330714,135.928571 423.848571,135.285714 423.848571,135.118571 L423.848571,134.379286 C423.848571,133.800714 423.141429,132.219286 422.562857,132.219286 C421.984286,132.219286 421.277143,133.800714 421.277143,134.379286 L421.277143,135.118571 C421.277143,135.375714 421.277143,135.928571 421.02,135.928571 L420.21,135.928571 C419.631429,135.928571 418.05,136.314286 418.05,136.892857 C418.05,137.471429 419.631429,137.857143 420.21,137.857143 L421.161429,137.857143 C421.463571,137.857143 421.270714,138.294286 421.270714,138.448571 L421.270714,139.451429 C421.270714,140.03 421.977857,141.611429 422.556429,141.611429 C423.135,141.611429 423.842143,140.03 423.842143,139.451429 L423.842143,138.467857 C423.842143,138.339286 424.176429,137.876429 424.324286,137.876429 L425.288571,137.876429 C425.867143,137.876429 427.448571,137.490714 427.448571,136.912143 C427.448571,136.333571 425.847857,135.928571 425.288571,135.928571 Z" id="406551cf-aa86-4f47-a144-357aa82de0d2" fill="#1976D2" fill-rule="nonzero"></path>
                    <circle id="7be5003c-4472-46d4-8fd5-cb0f750e9b8b" fill="#0D47A1" fill-rule="nonzero" cx="419.014286" cy="178.890714" r="2.25"></circle>
                    <circle id="7efbb3a7-f30e-4781-a185-7b9acf369ac6" fill="#0D47A1" fill-rule="nonzero" cx="329.657143" cy="110.105" r="2.25"></circle>
                    <circle id="e77aff23-9dcb-4e42-8690-c4669d7d47b5" fill="#64B5F6" fill-rule="nonzero" cx="416.738571" cy="93.4742857" r="4.47428571"></circle>
                    <circle id="9b535ee8-dcf2-4b65-b03e-5a5766db33df" fill="#82A9FF" fill-rule="nonzero" cx="377.215714" cy="110.400714" r="2.23714286"></circle>
                    <circle id="f898004f-292d-4a15-988f-9ba9c1bfd06e" fill="#64B5F6" fill-rule="nonzero" cx="395.415" cy="174.127143" r="4.17857143"></circle>
                    <path d="M187.47,36.6428571 L186.222857,36.6428571 C185.965714,36.6428571 185.342143,35.6464286 185.342143,35.3571429 L185.342143,34.2 C185.342143,33.2935714 184.32,30.8121429 183.413571,30.8121429 C182.507143,30.8121429 181.485,33.2935714 181.485,34.2 L181.485,35.3571429 C181.485,35.7621429 181.17,36.6428571 180.784286,36.6428571 L179.537143,36.6428571 C178.630714,36.6428571 176.149286,37.3435714 176.149286,38.25 C176.149286,39.1564286 178.630714,39.8571429 179.537143,39.8571429 L181.002857,39.8571429 C181.472143,39.8571429 181.465714,40.3392857 181.465714,40.59 L181.465714,42.1392857 C181.465714,43.0457143 182.487857,45.5271429 183.394286,45.5271429 C184.300714,45.5271429 185.322857,43.0457143 185.322857,42.1392857 L185.322857,40.59 C185.322857,40.3842857 185.734286,39.8571429 185.965714,39.8571429 L187.457143,39.8571429 C188.363571,39.8571429 190.845,39.1564286 190.845,38.25 C190.845,37.3435714 188.376429,36.6428571 187.47,36.6428571 Z" id="ee614fe0-a70d-49e2-ad0f-cfa0665daf52" fill="#2196F3" fill-rule="nonzero"></path>
                    <path d="M11.3271429,103.5 L10.08,103.5 C9.82285714,103.5 9.19928571,102.503571 9.19928571,102.214286 L9.19928571,101.057143 C9.19928571,100.150714 8.17714286,97.6692857 7.27071429,97.6692857 C6.36428571,97.6692857 5.34214286,100.150714 5.34214286,101.057143 L5.34214286,102.214286 C5.34214286,102.619286 5.02714286,103.5 4.64142857,103.5 L3.39428571,103.5 C2.48785714,103.5 0.00642857143,104.200714 0.00642857143,105.107143 C0.00642857143,106.013571 2.48785714,106.714286 3.39428571,106.714286 L4.86,106.714286 C5.32928571,106.714286 5.32285714,107.196429 5.32285714,107.447143 L5.32285714,108.996429 C5.32285714,109.902857 6.345,112.384286 7.25142857,112.384286 C8.15785714,112.384286 9.18,109.902857 9.18,108.996429 L9.18,107.447143 C9.18,107.241429 9.59142857,106.714286 9.82285714,106.714286 L11.3142857,106.714286 C12.2207143,106.714286 14.7021429,106.013571 14.7021429,105.107143 C14.7021429,104.200714 12.2335714,103.5 11.3271429,103.5 Z" id="acc1d592-062e-4dcd-a91f-f2c750c33fa0" fill="#2196F3" fill-rule="nonzero"></path>
                    <path d="M296.074286,55.9285714 L295.277143,55.9285714 C295.116429,55.9285714 294.634286,55.2857143 294.634286,55.1185714 L294.634286,54.3792857 C294.634286,53.8007143 293.927143,52.2192857 293.348571,52.2192857 C292.77,52.2192857 292.062857,53.8007143 292.062857,54.3792857 L292.062857,55.1185714 C292.062857,55.3757143 292.062857,55.9285714 291.805714,55.9285714 L290.995714,55.9285714 C290.417143,55.9285714 288.835714,56.3142857 288.835714,56.8928571 C288.835714,57.4714286 290.417143,57.8571429 290.995714,57.8571429 L291.947143,57.8571429 C292.249286,57.8571429 292.056429,58.2942857 292.056429,58.4485714 L292.056429,59.4514286 C292.056429,60.03 292.763571,61.6114286 293.342143,61.6114286 C293.920714,61.6114286 294.627857,60.03 294.627857,59.4514286 L294.627857,58.4678571 C294.627857,58.3392857 294.962143,57.8764286 295.11,57.8764286 L296.074286,57.8764286 C296.652857,57.8764286 298.234286,57.4907143 298.234286,56.9121429 C298.234286,56.3335714 296.633571,55.9285714 296.074286,55.9285714 Z" id="e9c2f9d0-6216-43dd-aafe-1aef442d8198" fill="#1976D2" fill-rule="nonzero"></path>
                    <path d="M71.0742857,92.5714286 L70.2771429,92.5714286 C70.1164286,92.5714286 69.6342857,91.9285714 69.6342857,91.7614286 L69.6342857,91.0221429 C69.6342857,90.4435714 68.9271429,88.8621429 68.3485714,88.8621429 C67.77,88.8621429 67.0628571,90.4435714 67.0628571,91.0221429 L67.0628571,91.7614286 C67.0628571,92.0185714 67.0628571,92.5714286 66.8057143,92.5714286 L65.9957143,92.5714286 C65.4171429,92.5714286 63.8357143,92.9571429 63.8357143,93.5357143 C63.8357143,94.1142857 65.4171429,94.5 65.9957143,94.5 L66.9471429,94.5 C67.2492857,94.5 67.0564286,94.9371429 67.0564286,95.0914286 L67.0564286,96.0942857 C67.0564286,96.6728571 67.7635714,98.2542857 68.3421429,98.2542857 C68.9207143,98.2542857 69.6278571,96.6728571 69.6278571,96.0942857 L69.6278571,95.1107143 C69.6278571,94.9821429 69.9621429,94.5192857 70.11,94.5192857 L71.0742857,94.5192857 C71.6528571,94.5192857 73.2342857,94.1335714 73.2342857,93.555 C73.2342857,92.9764286 71.6335714,92.5714286 71.0742857,92.5714286 Z" id="13867d9c-cfe7-4b60-a8c5-3f71e99c3e02" fill="#1976D2" fill-rule="nonzero"></path>
                    <circle id="cb349740-a417-4f38-a613-4379a7fe1f38" fill="#64B5F6" fill-rule="nonzero" cx="253.8" cy="40.8214286" r="4.82142857"></circle>
                    <circle id="be23bb10-1d2e-418b-af6d-2d6967ae971b" fill="#0D47A1" fill-rule="nonzero" cx="64.8" cy="148.390714" r="2.25"></circle>
                    <circle id="9efc09db-f667-434b-9915-b8177f90eb0b" fill="#0071BC" fill-rule="nonzero" cx="244.157143" cy="86.6764286" r="1.60714286"></circle>
                    <circle id="e31fdc7b-a5f8-44bf-aafe-55a25c9ddf7f" fill="#64B5F6" fill-rule="nonzero" cx="62.5242857" cy="50.1171429" r="4.47428571"></circle>
                    <circle id="1b095ea7-cb8e-44fa-8db9-d77434a32042" fill="#64B5F6" fill-rule="nonzero" cx="308.738571" cy="104.76" r="4.47428571"></circle>
                    <circle id="0045b9d1-e494-49ec-9bae-4feb39b517d1" fill="#64B5F6" fill-rule="nonzero" cx="23.0014286" cy="67.0435714" r="2.23714286"></circle>
                    <circle id="de43a1f8-3987-4c14-8b8b-500a4e27f972" fill="#82A9FF" fill-rule="nonzero" cx="207.501429" cy="112.686429" r="2.23714286"></circle>
                    <circle id="b38b0c10-cbab-47c9-839f-7ab983c113e8" fill="#82A9FF" fill-rule="nonzero" cx="41.2007143" cy="152.627143" r="4.17857143"></circle>
                    <circle id="e67cfae9-b598-4bd2-a0f9-80d7ff6e0a16" fill="#0D47A1" fill-rule="nonzero" cx="124.077857" cy="40.3135714" r="2.385"></circle>
                    <circle id="991e40b0-3269-43b4-8db7-0a4a8d214268" fill="#64B5F6" fill-rule="nonzero" cx="183.728571" cy="75.5357143" r="4.82142857"></circle>
                    <circle id="1d77e6b8-da9e-4299-ade6-ad650e1207bd" fill="#0071BC" fill-rule="nonzero" cx="138.085714" cy="137.462143" r="1.60714286"></circle>
                    <circle id="1e33811a-9f5a-4f3e-be99-0f7e1dde7905" fill="#0D47A1" fill-rule="nonzero" cx="124.720714" cy="89.1707143" r="2.385"></circle>
                    <path d="M365.541429,66.8571429 L364.294286,66.8571429 C364.037143,66.8571429 363.413571,65.8607143 363.413571,65.5714286 L363.413571,64.4142857 C363.413571,63.5078571 362.391429,61.0264286 361.485,61.0264286 C360.578571,61.0264286 359.556429,63.5078571 359.556429,64.4142857 L359.556429,65.5714286 C359.556429,65.9764286 359.241429,66.8571429 358.855714,66.8571429 L357.608571,66.8571429 C356.702143,66.8571429 354.220714,67.5578571 354.220714,68.4642857 C354.220714,69.3707143 356.702143,70.0714286 357.608571,70.0714286 L359.074286,70.0714286 C359.543571,70.0714286 359.537143,70.5535714 359.537143,70.8042857 L359.537143,72.3535714 C359.537143,73.26 360.559286,75.7414286 361.465714,75.7414286 C362.372143,75.7414286 363.394286,73.26 363.394286,72.3535714 L363.394286,70.8042857 C363.394286,70.5985714 363.805714,70.0714286 364.037143,70.0714286 L365.528571,70.0714286 C366.435,70.0714286 368.916429,69.3707143 368.916429,68.4642857 C368.916429,67.5578571 366.447857,66.8571429 365.541429,66.8571429 Z" id="c488d0a9-6894-4c9c-aef4-d1faab1984cf" fill="#2196F3" fill-rule="nonzero"></path>
                    <path d="M425.288571,55.9285714 L424.491429,55.9285714 C424.330714,55.9285714 423.848571,55.2857143 423.848571,55.1185714 L423.848571,54.3792857 C423.848571,53.8007143 423.141429,52.2192857 422.562857,52.2192857 C421.984286,52.2192857 421.277143,53.8007143 421.277143,54.3792857 L421.277143,55.1185714 C421.277143,55.3757143 421.277143,55.9285714 421.02,55.9285714 L420.21,55.9285714 C419.631429,55.9285714 418.05,56.3142857 418.05,56.8928571 C418.05,57.4714286 419.631429,57.8571429 420.21,57.8571429 L421.161429,57.8571429 C421.463571,57.8571429 421.270714,58.2942857 421.270714,58.4485714 L421.270714,59.4514286 C421.270714,60.03 421.977857,61.6114286 422.556429,61.6114286 C423.135,61.6114286 423.842143,60.03 423.842143,59.4514286 L423.842143,58.4678571 C423.842143,58.3392857 424.176429,57.8764286 424.324286,57.8764286 L425.288571,57.8764286 C425.867143,57.8764286 427.448571,57.4907143 427.448571,56.9121429 C427.448571,56.3335714 425.847857,55.9285714 425.288571,55.9285714 Z" id="406551cf-aa86-4f47-a144-357aa82de0d2" fill="#1976D2" fill-rule="nonzero"></path>
                    <circle id="7be5003c-4472-46d4-8fd5-cb0f750e9b8b" fill="#0D47A1" fill-rule="nonzero" cx="419.014286" cy="98.8907143" r="2.25"></circle>
                    <circle id="7efbb3a7-f30e-4781-a185-7b9acf369ac6" fill="#0D47A1" fill-rule="nonzero" cx="329.657143" cy="30.105" r="2.25"></circle>
                    <circle id="9b535ee8-dcf2-4b65-b03e-5a5766db33df" fill="#82A9FF" fill-rule="nonzero" cx="377.215714" cy="30.4007143" r="2.23714286"></circle>
                    <circle id="f898004f-292d-4a15-988f-9ba9c1bfd06e" fill="#64B5F6" fill-rule="nonzero" cx="395.415" cy="94.1271429" r="4.17857143"></circle>
                    <circle id="e77aff23-9dcb-4e42-8690-c4669d7d47b5" fill="#64B5F6" fill-rule="nonzero" cx="416.738571" cy="23.4742857" r="4.47428571"></circle>
                    <circle id="9b535ee8-dcf2-4b65-b03e-5a5766db33df" fill="#82A9FF" fill-rule="nonzero" cx="377.215714" cy="40.4007143" r="2.23714286"></circle>
                    <circle id="f898004f-292d-4a15-988f-9ba9c1bfd06e" fill="#64B5F6" fill-rule="nonzero" cx="395.415" cy="104.127143" r="4.17857143"></circle>
                    <path d="M11.3271429,33.5 L10.08,33.5 C9.82285714,33.5 9.19928571,32.5035714 9.19928571,32.2142857 L9.19928571,31.0571429 C9.19928571,30.1507143 8.17714286,27.6692857 7.27071429,27.6692857 C6.36428571,27.6692857 5.34214286,30.1507143 5.34214286,31.0571429 L5.34214286,32.2142857 C5.34214286,32.6192857 5.02714286,33.5 4.64142857,33.5 L3.39428571,33.5 C2.48785714,33.5 0.00642857143,34.2007143 0.00642857143,35.1071429 C0.00642857143,36.0135714 2.48785714,36.7142857 3.39428571,36.7142857 L4.86,36.7142857 C5.32928571,36.7142857 5.32285714,37.1964286 5.32285714,37.4471429 L5.32285714,38.9964286 C5.32285714,39.9028571 6.345,42.3842857 7.25142857,42.3842857 C8.15785714,42.3842857 9.18,39.9028571 9.18,38.9964286 L9.18,37.4471429 C9.18,37.2414286 9.59142857,36.7142857 9.82285714,36.7142857 L11.3142857,36.7142857 C12.2207143,36.7142857 14.7021429,36.0135714 14.7021429,35.1071429 C14.7021429,34.2007143 12.2335714,33.5 11.3271429,33.5 Z" id="acc1d592-062e-4dcd-a91f-f2c750c33fa0" fill="#2196F3" fill-rule="nonzero"></path>
                    <path d="M71.0742857,22.5714286 L70.2771429,22.5714286 C70.1164286,22.5714286 69.6342857,21.9285714 69.6342857,21.7614286 L69.6342857,21.0221429 C69.6342857,20.4435714 68.9271429,18.8621429 68.3485714,18.8621429 C67.77,18.8621429 67.0628571,20.4435714 67.0628571,21.0221429 L67.0628571,21.7614286 C67.0628571,22.0185714 67.0628571,22.5714286 66.8057143,22.5714286 L65.9957143,22.5714286 C65.4171429,22.5714286 63.8357143,22.9571429 63.8357143,23.5357143 C63.8357143,24.1142857 65.4171429,24.5 65.9957143,24.5 L66.9471429,24.5 C67.2492857,24.5 67.0564286,24.9371429 67.0564286,25.0914286 L67.0564286,26.0942857 C67.0564286,26.6728571 67.7635714,28.2542857 68.3421429,28.2542857 C68.9207143,28.2542857 69.6278571,26.6728571 69.6278571,26.0942857 L69.6278571,25.1107143 C69.6278571,24.9821429 69.9621429,24.5192857 70.11,24.5192857 L71.0742857,24.5192857 C71.6528571,24.5192857 73.2342857,24.1335714 73.2342857,23.555 C73.2342857,22.9764286 71.6335714,22.5714286 71.0742857,22.5714286 Z" id="13867d9c-cfe7-4b60-a8c5-3f71e99c3e02" fill="#1976D2" fill-rule="nonzero"></path>
                    <circle id="be23bb10-1d2e-418b-af6d-2d6967ae971b" fill="#0D47A1" fill-rule="nonzero" cx="64.8" cy="78.3907143" r="2.25"></circle>
                    <circle id="9efc09db-f667-434b-9915-b8177f90eb0b" fill="#0071BC" fill-rule="nonzero" cx="244.157143" cy="16.6764286" r="1.60714286"></circle>
                    <circle id="1b095ea7-cb8e-44fa-8db9-d77434a32042" fill="#64B5F6" fill-rule="nonzero" cx="308.738571" cy="34.76" r="4.47428571"></circle>
                    <circle id="de43a1f8-3987-4c14-8b8b-500a4e27f972" fill="#82A9FF" fill-rule="nonzero" cx="207.501429" cy="42.6864286" r="2.23714286"></circle>
                    <circle id="b38b0c10-cbab-47c9-839f-7ab983c113e8" fill="#82A9FF" fill-rule="nonzero" cx="41.2007143" cy="82.6271429" r="4.17857143"></circle>
                    <circle id="991e40b0-3269-43b4-8db7-0a4a8d214268" fill="#64B5F6" fill-rule="nonzero" cx="183.728571" cy="5.53571429" r="4.82142857"></circle>
                    <circle id="1d77e6b8-da9e-4299-ade6-ad650e1207bd" fill="#0071BC" fill-rule="nonzero" cx="138.085714" cy="67.4621429" r="1.60714286"></circle>
                    <circle id="1e33811a-9f5a-4f3e-be99-0f7e1dde7905" fill="#0D47A1" fill-rule="nonzero" cx="124.720714" cy="19.1707143" r="2.385"></circle>
                    <circle id="7be5003c-4472-46d4-8fd5-cb0f750e9b8b" fill="#0D47A1" fill-rule="nonzero" cx="419.014286" cy="28.8907143" r="2.25"></circle>
                    <circle id="f898004f-292d-4a15-988f-9ba9c1bfd06e" fill="#64B5F6" fill-rule="nonzero" cx="395.415" cy="24.1271429" r="4.17857143"></circle>
                </g>
            </g>
        </g>
    </g>
</svg>