<svg xmlns="http://www.w3.org/2000/svg" width="50" height="47" viewBox="0 0 50 47">
    <g fill="#29ABE2" fill-rule="nonzero">
        <path d="M18.558 32.75l-4.495-1.926V2.221l10.546 5.584v10.123a.702.702 0 1 0 1.407 0V7.852l10.547-4.343v16.528a.702.702 0 1 0 1.406 0V2.459a.702.702 0 0 0-.971-.65L25.35 6.605 13.688.432a1.109 1.109 0 0 0-.132-.049.744.744 0 0 0-.174-.028c-.093 0-.127.007-.162.014C13.17.38 8.923 1.793.48 4.606a.701.701 0 0 0-.48.666v30.234a.705.705 0 0 0 .703.704.69.69 0 0 0 .222-.037l12.403-4.134 4.676 2.003a.702.702 0 0 0 .554-1.292zM1.406 5.78l11.25-3.75v28.752l-11.25 3.75V5.78zM48.007 38.244a1.98 1.98 0 0 0-.932.232l-1.734-1.733a.586.586 0 0 0-.414-.172h-4.272a.586.586 0 0 0 0 1.172h4.03l1.562 1.562a1.994 1.994 0 0 0 1.76 2.923 1.994 1.994 0 0 0 1.992-1.992 1.994 1.994 0 0 0-1.992-1.992zm0 2.813a.821.821 0 0 1 0-1.64.821.821 0 0 1 0 1.64z"/>
        <path d="M48.007 21.773a1.994 1.994 0 0 0-1.76 2.924l-1.563 1.562h-6.411a6.622 6.622 0 0 0-2.688-.849v-1.059h6.178c.213 0 .41-.116.513-.302l1.78-3.227a1.994 1.994 0 0 0 2.779-1.83A1.994 1.994 0 0 0 44.843 17a1.994 1.994 0 0 0-1.693 3.04l-1.733 3.14h-5.832v-5.592a.586.586 0 0 0-.586-.586h-2.627a.586.586 0 0 0-.586.586v1.813c-1.21.307-2.363.785-3.437 1.425l-1.277-1.277a.586.586 0 0 0-.83 0l-3.702 3.706a.586.586 0 0 0 0 .828l1.275 1.276a12.875 12.875 0 0 0-1.424 3.437h-1.804a.586.586 0 0 0-.586.586v5.24c0 .323.262.585.586.585h1.804a12.87 12.87 0 0 0 1.424 3.438L22.54 39.92a.586.586 0 0 0 0 .829l3.703 3.706a.586.586 0 0 0 .829 0l1.277-1.277a12.878 12.878 0 0 0 3.437 1.424v1.81c0 .324.262.586.585.586H35a.585.585 0 0 0 .586-.584v-5.618h5.831l1.735 3.163c-.19.305-.3.664-.3 1.049 0 1.098.894 1.992 1.992 1.992a1.994 1.994 0 0 0 1.992-1.992 1.994 1.994 0 0 0-2.777-1.83l-1.781-3.25a.586.586 0 0 0-.514-.304h-6.178v-1.578a.586.586 0 0 0-.586-.586 5.465 5.465 0 0 1-5.459-5.458 5.465 5.465 0 0 1 5.35-5.457c.033.006.067.01.103.01a5.478 5.478 0 0 1 5.112 3.551.586.586 0 1 0 1.098-.409 6.581 6.581 0 0 0-1.427-2.266h5.15a.586.586 0 0 0 .415-.172l1.734-1.734c.278.148.595.233.932.233A1.994 1.994 0 0 0 50 23.765a1.994 1.994 0 0 0-1.992-1.992zm-3.164-3.601a.821.821 0 0 1 0 1.64.821.821 0 0 1 0-1.64zm0 26.016a.821.821 0 0 1 0 1.64.821.821 0 0 1 0-1.64zm-10.43-18.79c-3.382.297-6.044 3.145-6.044 6.604 0 3.458 2.662 6.307 6.044 6.605v7.22h-1.455v-1.69a.586.586 0 0 0-.463-.572 11.723 11.723 0 0 1-3.914-1.622.586.586 0 0 0-.733.078l-1.19 1.191-2.876-2.877 1.19-1.19a.586.586 0 0 0 .078-.732 11.721 11.721 0 0 1-1.622-3.914.586.586 0 0 0-.572-.463h-1.683v-4.068h1.683a.586.586 0 0 0 .572-.463c.3-1.395.846-2.712 1.622-3.913a.586.586 0 0 0-.078-.733l-1.19-1.19 2.875-2.877 1.191 1.191c.196.195.5.228.733.078a11.723 11.723 0 0 1 3.914-1.622.586.586 0 0 0 .463-.573v-1.692h1.455v7.223zm13.594-.812a.821.821 0 0 1 0-1.64.821.821 0 0 1 0 1.64z"/>
        <path d="M48.007 30.017c-.895 0-1.653.593-1.904 1.406h-1.729a.586.586 0 0 0 0 1.172h1.729a1.996 1.996 0 0 0 1.904 1.406 1.994 1.994 0 0 0 1.992-1.992 1.994 1.994 0 0 0-1.992-1.992zm0 2.813a.821.821 0 0 1 0-1.641.821.821 0 0 1 0 1.64z"/>
    </g>
</svg>
