<?xml version="1.0" encoding="UTF-8"?>
<svg width="96px" height="88px" viewBox="0 0 96 88" version="1.1" xmlns="http://www.w3.org/2000/svg" xmlns:xlink="http://www.w3.org/1999/xlink">
    <!-- Generator: Sketch 49.2 (51160) - http://www.bohemiancoding.com/sketch -->
    <title>noun_186514_cc</title>
    <desc>Created with Sketch.</desc>
    <defs></defs>
    <g id="Page-1" stroke="none" stroke-width="1" fill="none" fill-rule="evenodd">
        <g id="noun_186514_cc" fill="#A7A7A7" fill-rule="nonzero">
            <g id="Group">
                <g id="Shape">
                    <path d="M74.4951181,67.9145361 L27.7416046,67.9145361 L27.7416046,72.9216292 C26.8333748,78.0543287 22.331884,81.9538209 16.915493,81.9538209 C10.8441011,81.9538209 5.92226559,77.0541766 5.92226559,71.0101589 C5.92226559,67.2805892 7.7963671,63.9867658 10.658225,62.0110376 L7.50582555,57.5279145 C3.22643184,60.4933182 0.4256519,65.4261347 0.4256519,71.0101589 C0.4256519,80.0761854 7.80840521,87.4256519 16.915493,87.4256519 C25.0826867,87.4256519 31.8630986,81.5149032 33.1756484,73.7560854 L74.2727359,73.7560854 C75.2245493,75.3860971 76.9977998,76.4819899 79.028169,76.4819899 C82.0638649,76.4819899 84.5247827,74.0321677 84.5247827,71.0101589 C84.5247827,67.9881501 82.0638649,65.538328 79.028169,65.538328 C77.146664,65.538328 75.4859566,66.4794128 74.4951181,67.9145361 Z"></path>
                    <path d="M11.9970435,68.7331616 C12.0920108,68.4983716 12.2044037,68.2673509 12.3346608,68.041739 C13.3445598,66.2925426 15.1729461,65.3107523 17.055871,65.3013474 L37.6682879,29.599594 C31.5944678,24.5874599 29.8490151,15.7752971 33.919978,8.7241825 C38.4574517,0.86504756 48.5025335,-1.83020527 56.3562962,2.70416677 C61.1781003,5.4880366 64.0529051,10.3497657 64.5038811,15.5073647 L59.0496311,15.9855501 C58.749694,12.546218 56.833007,9.3039392 53.6176886,7.4475743 C48.3818468,4.4246596 41.6851256,6.2214948 38.6601432,11.4609181 C35.6977221,16.5919819 37.3553436,23.1218655 42.342833,26.2289783 L45.3568902,27.969145 L22.0107416,68.4058605 C22.6741594,69.7914555 22.7457069,71.4352393 22.1133132,72.9183847 C21.3416855,75.0070401 19.3316098,76.496256 16.9734712,76.496256 C13.9484888,76.496256 11.496256,74.0456995 11.496256,71.0227848 C11.496256,70.2053441 11.6755734,69.4297567 11.9970435,68.7331616 Z"></path>
                    <path d="M47.662923,22.3537714 L70.775405,62.3857646 L73.5278906,60.7966163 L73.5745661,60.8774606 C73.5972847,60.8641312 73.6200684,60.8508704 73.6429171,60.8376787 C78.8823981,57.8126629 85.5575782,59.5653749 88.5523492,64.7524704 C91.5471202,69.939566 89.7274232,76.5967975 84.4879423,79.6218133 C81.2579165,81.4866695 77.48226,81.5357725 74.359624,80.0838539 L72.0282197,85.020885 C76.7079973,87.1885541 82.3615702,87.1108529 87.1991985,84.3178469 C95.05842,79.7803233 97.7879655,69.794476 93.295809,62.0138327 C89.2398724,54.9887444 80.6834446,52.1633014 73.2751126,55.0206617 L52.7672927,19.5000756 C53.6506759,17.8891995 53.7003697,15.8799727 52.7216499,14.1847802 C51.2242644,11.5912325 47.8866743,10.7148765 45.2669338,12.2273844 C42.6471933,13.7398922 41.7373448,17.068508 43.2347303,19.6620558 C44.1863907,21.3103798 45.8813487,22.2650936 47.662923,22.3537714 Z"></path>
                </g>
            </g>
        </g>
    </g>
</svg>