<svg xmlns="http://www.w3.org/2000/svg" width="68" height="65" viewBox="0 0 68 65">
    <defs>
        <filter id="a" width="108.9%" height="112.7%" x="-3.6%" y="-5.2%" filterUnits="objectBoundingBox">
            <feOffset dx="3" dy="3" in="SourceAlpha" result="shadowOffsetOuter1"/>
            <feGaussianBlur in="shadowOffsetOuter1" result="shadowBlurOuter1" stdDeviation="5"/>
            <feColorMatrix in="shadowBlurOuter1" result="shadowMatrixOuter1" values="0 0 0 0 0 0 0 0 0 0 0 0 0 0 0 0 0 0 0.15 0"/>
            <feMerge>
                <feMergeNode in="shadowMatrixOuter1"/>
                <feMergeNode in="SourceGraphic"/>
            </feMerge>
        </filter>
    </defs>
    <path fill="#29ABE2" fill-rule="nonzero" d="M24.75 0C18.55 0 13.5 5.05 13.5 11.25c0 3.7 1.837 6.948 4.605 9l-5.59 9.21c-1.142-.337-2.412-.25-3.515.388C6.86 31.083 6.113 33.86 7.348 36c1.235 2.14 4.012 2.887 6.152 1.652 2.14-1.235 2.887-4.012 1.652-6.152-.193-.334-.444-.615-.703-.879l6.117-10.055.598-.984-.984-.562a9.013 9.013 0 0 1-4.43-7.77c0-4.983 4.017-9 9-9s9 4.017 9 9a8.84 8.84 0 0 1-.387 2.637l2.145.668c.325-1.05.492-2.154.492-3.305C36 5.05 30.95 0 24.75 0zm0 6.75a4.514 4.514 0 0 0-4.5 4.5c0 2.474 2.026 4.5 4.5 4.5.374 0 .743-.053 1.09-.14l5.414 9.808.527.984 1.02-.527a8.874 8.874 0 0 1 4.324-1.125c4.983 0 9 4.017 9 9s-4.017 9-9 9a9.008 9.008 0 0 1-6.258-2.531l-1.547 1.617A11.248 11.248 0 0 0 37.125 45c6.2 0 11.25-5.05 11.25-11.25s-5.05-11.25-11.25-11.25c-1.56 0-3.006.409-4.36.984l-4.956-9c.87-.821 1.441-1.955 1.441-3.234 0-2.474-2.026-4.5-4.5-4.5zm0 2.25c1.257 0 2.25.993 2.25 2.25 0 1.257-.993 2.25-2.25 2.25a2.232 2.232 0 0 1-2.25-2.25c0-1.257.993-2.25 2.25-2.25zM8.508 22.816C3.608 24.038 0 28.49 0 33.75 0 39.95 5.05 45 11.25 45c5.8 0 10.446-4.478 11.04-10.125H32.8c.502 1.934 2.242 3.375 4.325 3.375 2.474 0 4.5-2.026 4.5-4.5s-2.026-4.5-4.5-4.5c-2.083 0-3.823 1.441-4.324 3.375H20.25v1.125c0 4.983-4.017 9-9 9s-9-4.017-9-9c0-4.228 2.91-7.743 6.82-8.719l-.562-2.215zm2.46 8.684a2.23 2.23 0 0 1 2.216 1.125c.628 1.09.28 2.43-.809 3.059-1.09.628-2.43.28-3.059-.809-.628-1.09-.28-2.43.809-3.059.272-.158.554-.28.844-.316zm26.157 0c1.257 0 2.25.993 2.25 2.25 0 1.257-.993 2.25-2.25 2.25a2.232 2.232 0 0 1-2.25-2.25c0-1.257.993-2.25 2.25-2.25z" filter="url(#a)" transform="translate(7 7)"/>
</svg>
